<!-- Generator: Adobe Illustrator 19.1.0, SVG Export Plug-In  -->
<svg version="1.1"
	 xmlns="http://www.w3.org/2000/svg" xmlns:xlink="http://www.w3.org/1999/xlink" xmlns:a="http://ns.adobe.com/AdobeSVGViewerExtensions/3.0/"
	 x="0px" y="0px" width="56.751px" height="17.872px" viewBox="0 0 56.751 17.872"
	 style="enable-background:new 0 0 56.751 17.872;" xml:space="preserve">
<style type="text/css">
	.st0{font-family:'SourceSansPro-Light';}
	.st1{font-size:16px;}
</style>
<defs>
</defs>
<g>
	<path d="M3.777,3.372H0.416v-0.64h7.443v0.64H4.513v9.908H3.777V3.372z"/>
	<path d="M8.752,7.966c0-3.33,1.809-5.426,4.354-5.426c2.529,0,4.338,2.097,4.338,5.426c0,3.345-1.809,5.506-4.338,5.506
		C10.561,13.472,8.752,11.312,8.752,7.966z M16.675,7.966c0-2.914-1.441-4.754-3.57-4.754c-2.145,0-3.585,1.84-3.585,4.754
		c0,2.929,1.441,4.834,3.585,4.834C15.234,12.8,16.675,10.896,16.675,7.966z"/>
	<path d="M19.072,7.966c0-3.33,1.809-5.426,4.354-5.426c2.529,0,4.338,2.097,4.338,5.426c0,3.345-1.809,5.506-4.338,5.506
		C20.88,13.472,19.072,11.312,19.072,7.966z M26.995,7.966c0-2.914-1.441-4.754-3.57-4.754c-2.145,0-3.585,1.84-3.585,4.754
		c0,2.929,1.441,4.834,3.585,4.834C25.554,12.8,26.995,10.896,26.995,7.966z"/>
	<path d="M30.08,2.732h0.736v9.908h4.851v0.64H30.08V2.732z"/>
	<path d="M37.44,2.732h0.736V8.59h0.031l5.106-5.858h0.864l-3.361,3.906l3.826,6.643h-0.849l-3.474-6.083l-2.145,2.449v3.633H37.44
		V2.732z"/>
	<path d="M46.256,2.732h0.736V13.28h-0.736V2.732z"/>
	<path d="M52.257,3.372h-3.361v-0.64h7.443v0.64h-3.346v9.908h-0.736V3.372z"/>
</g>
</svg>