<!-- Generator: Adobe Illustrator 19.1.0, SVG Export Plug-In  -->
<svg version="1.1"
	 xmlns="http://www.w3.org/2000/svg" xmlns:xlink="http://www.w3.org/1999/xlink" xmlns:a="http://ns.adobe.com/AdobeSVGViewerExtensions/3.0/"
	 x="0px" y="0px" width="254.939px" height="294.378px" viewBox="0 0 254.939 294.378"
	 style="enable-background:new 0 0 254.939 294.378;" xml:space="preserve">
<style type="text/css">
	.st0{fill:#FACB46;}
</style>
<defs>
</defs>
<polygon class="st0" points="254.939,220.784 127.469,294.378 0,220.784 0,73.595 127.469,0 254.939,73.595 "/>
<path d="M190.101,136.58c0,6.937,0,13.874,0,20.811c-0.052,0.393-0.129,0.784-0.153,1.178c-0.154,2.527-0.235,5.061-0.455,7.582
	c-0.371,4.249-0.753,8.524-2.227,12.558c-1.983,5.43-5.845,8.942-11.546,10.089c-2.893,0.582-5.875,0.833-8.83,0.985
	c-7.754,0.401-15.512,0.848-23.273,0.942c-11.232,0.136-22.468,0.003-33.702-0.063c-9.503-0.056-18.984-0.537-28.448-1.451
	c-6.973-0.674-12.813-5.299-14.323-12.116c-0.932-4.212-1.333-8.547-1.863-12.84c-0.272-2.206-0.305-4.442-0.446-6.665
	c0-6.87,0-13.74,0-20.61c0.051-0.324,0.13-0.646,0.15-0.971c0.151-2.494,0.238-4.994,0.446-7.483
	c0.363-4.352,0.758-8.729,2.254-12.859c1.967-5.433,5.83-8.993,11.541-10.084c3.586-0.685,7.269-0.971,10.923-1.166
	c7.022-0.373,14.053-0.713,21.083-0.778c11.234-0.104,22.471-0.003,33.706,0.068c9.47,0.061,18.916,0.551,28.352,1.428
	c7.051,0.655,13.024,5.288,14.519,12.145c0.919,4.216,1.325,8.549,1.857,12.842C189.933,132.26,189.964,134.426,190.101,136.58z
	 M111.315,166.621c13.318-6.906,26.44-13.709,39.811-20.642c-13.395-6.988-26.547-13.849-39.811-20.769
	C111.315,139.09,111.315,152.72,111.315,166.621z"/>
</svg>