<!-- Generator: Adobe Illustrator 19.1.0, SVG Export Plug-In  -->
<svg version="1.1"
	 xmlns="http://www.w3.org/2000/svg" xmlns:xlink="http://www.w3.org/1999/xlink" xmlns:a="http://ns.adobe.com/AdobeSVGViewerExtensions/3.0/"
	 x="0px" y="0px" width="89.552px" height="17.872px" viewBox="0 0 89.552 17.872"
	 style="enable-background:new 0 0 89.552 17.872;" xml:space="preserve">
<style type="text/css">
	.st0{font-family:'SourceSansPro-Light';}
	.st1{font-size:16px;}
</style>
<defs>
</defs>
<g>
	<path d="M5.33,2.54c1.232,0,2.177,0.608,2.737,1.265l-0.432,0.48C7.06,3.645,6.291,3.212,5.33,3.212
		c-2.305,0-3.745,1.84-3.745,4.77S3.01,12.8,5.267,12.8c1.088,0,1.904-0.433,2.673-1.297l0.433,0.464
		c-0.801,0.928-1.761,1.504-3.138,1.504c-2.593,0-4.418-2.129-4.418-5.49C0.816,4.637,2.642,2.54,5.33,2.54z"/>
	<path d="M9.345,7.966c0-3.33,1.809-5.426,4.354-5.426c2.529,0,4.338,2.097,4.338,5.426c0,3.345-1.809,5.506-4.338,5.506
		C11.153,13.472,9.345,11.312,9.345,7.966z M17.268,7.966c0-2.914-1.44-4.754-3.569-4.754c-2.145,0-3.586,1.84-3.586,4.754
		c0,2.929,1.441,4.834,3.586,4.834C15.827,12.8,17.268,10.896,17.268,7.966z"/>
	<path d="M19.488,8.975h3.521v0.624h-3.521V8.975z"/>
	<path d="M28.962,2.54c1.232,0,2.177,0.608,2.737,1.265l-0.432,0.48c-0.576-0.64-1.345-1.072-2.306-1.072
		c-2.305,0-3.745,1.84-3.745,4.77s1.425,4.818,3.682,4.818c1.088,0,1.904-0.433,2.673-1.297l0.433,0.464
		c-0.801,0.928-1.761,1.504-3.138,1.504c-2.593,0-4.418-2.129-4.418-5.49C24.448,4.637,26.273,2.54,28.962,2.54z"/>
	<path d="M39.875,13.28l-2.85-4.85h-2.241v4.85h-0.736V2.732h3.01c2.097,0,3.474,0.769,3.474,2.785c0,1.681-1.057,2.641-2.705,2.865
		l2.896,4.898H39.875z M36.865,7.822c1.873,0,2.897-0.752,2.897-2.305c0-1.584-1.024-2.161-2.897-2.161h-2.081v4.466H36.865z"/>
	<path d="M42.896,2.732h5.763v0.64h-5.026v3.986h4.226v0.64h-4.226v4.642h5.187v0.64h-5.923V2.732z"/>
	<path d="M55.73,9.663h-4.178L50.32,13.28h-0.752l3.729-10.548h0.736l3.713,10.548h-0.784L55.73,9.663z M55.522,9.039L54.85,7.07
		c-0.416-1.249-0.8-2.353-1.168-3.649h-0.064c-0.368,1.296-0.736,2.401-1.168,3.649l-0.673,1.969H55.522z"/>
	<path d="M60.945,3.372h-3.361v-0.64h7.443v0.64h-3.346v9.908h-0.736V3.372z"/>
	<path d="M66.945,2.732h0.736V13.28h-0.736V2.732z"/>
	<path d="M69.984,7.966c0-3.33,1.809-5.426,4.354-5.426c2.529,0,4.338,2.097,4.338,5.426c0,3.345-1.809,5.506-4.338,5.506
		C71.793,13.472,69.984,11.312,69.984,7.966z M77.907,7.966c0-2.914-1.44-4.754-3.569-4.754c-2.145,0-3.585,1.84-3.585,4.754
		c0,2.929,1.44,4.834,3.585,4.834C76.467,12.8,77.907,10.896,77.907,7.966z"/>
	<path d="M80.992,2.732h0.768l4.435,7.443l1.2,2.097h0.064c-0.049-1.024-0.097-2.049-0.097-3.073V2.732h0.688V13.28h-0.769
		l-4.434-7.443l-1.2-2.097h-0.064c0.048,1.009,0.097,1.969,0.097,2.993v6.547h-0.688V2.732z"/>
</g>
</svg>