<!-- Generator: Adobe Illustrator 19.1.0, SVG Export Plug-In  -->
<svg version="1.1"
	 xmlns="http://www.w3.org/2000/svg" xmlns:xlink="http://www.w3.org/1999/xlink" xmlns:a="http://ns.adobe.com/AdobeSVGViewerExtensions/3.0/"
	 x="0px" y="0px" width="254.939px" height="294.378px" viewBox="0 0 254.939 294.378"
	 style="enable-background:new 0 0 254.939 294.378;" xml:space="preserve">
<style type="text/css">
	.st0{fill:#FACB46;}
</style>
<defs>
</defs>
<polygon class="st0" points="254.939,220.784 127.469,294.378 0,220.784 0,73.595 127.469,0 254.939,73.595 "/>
<g>
	<g>
		<path d="M158.946,132.428c0.416-0.069,0.687-0.154,0.958-0.154c8.741-0.006,17.482-0.001,26.223-0.011
			c0.551-0.001,0.727,0.199,0.727,0.74c-0.012,18.294,0.018,36.588-0.05,54.881c-0.009,2.436-0.579,4.838-1.457,7.165
			c-1.192,3.16-2.991,5.845-5.629,7.941c-1.392,1.106-2.927,1.967-4.632,2.548c-2.279,0.776-4.602,1.045-7,1.043
			c-25.7-0.021-51.4-0.025-77.101-0.003c-3.128,0.003-6.146-0.514-9.022-1.684c-4.87-1.981-8.838-5.117-11.529-9.686
			c-1.544-2.621-2.342-5.496-2.341-8.57c0.004-17.849,0.003-35.698-0.008-53.547c0-0.583,0.116-0.83,0.782-0.829
			c10.181,0.019,20.361,0.009,30.542,0.013c0.293,0,0.586,0.083,0.989,0.145c-3.955,7.583-4.779,15.5-2.857,23.588
			c1.726,7.265,5.683,13.322,11.599,17.919c12.681,9.855,28.254,8.735,38.942,1.553c7.003-4.705,11.628-11.215,13.704-19.354
			C163.861,147.992,162.888,140.083,158.946,132.428z"/>
		<path d="M129.692,87.808c13.53,0,27.061-0.035,40.591,0.023c3.576,0.015,6.753,1.351,9.564,3.573
			c2.378,1.88,4.044,4.297,5.212,7.038c1.088,2.554,1.752,5.251,1.77,8.048c0.036,5.6,0.011,11.201,0.011,16.802
			c0,1.537,0,1.527-1.51,1.527c-8.479-0.002-16.959,0.001-25.438,0.002c-1.492,0-2.994-0.112-4.472,0.029
			c-1.55,0.148-2.662-0.419-3.744-1.452c-2.353-2.246-5.068-3.965-8.013-5.368c-2.349-1.12-4.792-1.964-7.31-2.47
			c-3.829-0.771-7.702-0.945-11.606-0.293c-2.878,0.481-5.639,1.276-8.312,2.408c-2.653,1.124-5.084,2.633-7.32,4.446
			c-0.909,0.737-1.712,1.609-2.645,2.312c-0.371,0.28-0.962,0.372-1.454,0.374c-7.511,0.022-15.022,0.013-22.533,0.016
			c-4.553,0.002-9.107,0.006-13.66,0.033c-0.652,0.004-0.729-0.346-0.727-0.843c0.006-1.492,0.008-2.983,0.008-4.475
			c-0.001-4.24-0.028-8.48,0.004-12.719c0.018-2.42,0.765-4.671,1.856-6.805c2.074-4.058,5.277-7.045,9.175-9.268
			c2.406-1.372,5.013-2.365,7.791-2.699c1.6-0.192,3.227-0.22,4.841-0.222c12.64-0.017,25.28-0.009,37.921-0.009
			C129.692,87.812,129.692,87.81,129.692,87.808z M149.78,106.411c0.013,0,0.027,0,0.04,0c0,2.431,0.041,4.862-0.012,7.292
			c-0.048,2.189,1.069,3.724,3.266,3.777c5.125,0.122,10.257,0.156,15.382,0.038c2.41-0.055,3.575-1.571,3.577-3.967
			c0.003-4.946,0.058-9.893-0.019-14.838c-0.013-0.814-0.443-1.722-0.934-2.404c-0.751-1.045-2.006-1.123-3.199-1.126
			c-4.737-0.01-9.474,0.008-14.211-0.011c-2.25-0.009-3.972,1.287-3.904,3.863C149.831,101.492,149.78,103.952,149.78,106.411z"/>
	</g>
	<path d="M128.734,121.441c14.577-0.602,26.53,10.813,27.386,24.49c0.993,15.861-10.665,27.972-25.518,28.557
		c-14.575,0.574-25.997-10.554-27.305-23.729C101.649,134.156,114.73,121.731,128.734,121.441z"/>
</g>
</svg>