<!-- Generator: Adobe Illustrator 19.1.0, SVG Export Plug-In  -->
<svg version="1.1"
	 xmlns="http://www.w3.org/2000/svg" xmlns:xlink="http://www.w3.org/1999/xlink" xmlns:a="http://ns.adobe.com/AdobeSVGViewerExtensions/3.0/"
	 x="0px" y="0px" width="85.423px" height="17.872px" viewBox="0 0 85.423 17.872"
	 style="enable-background:new 0 0 85.423 17.872;" xml:space="preserve">
<style type="text/css">
	.st0{font-family:'SourceSansPro-Light';}
	.st1{font-size:16px;}
</style>
<defs>
</defs>
<g>
	<path d="M0.384,2.732h0.784l1.312,6.21c0.256,1.153,0.496,2.305,0.736,3.441h0.064c0.24-1.136,0.528-2.289,0.8-3.441l1.665-6.21
		h0.736l1.665,6.21c0.272,1.153,0.56,2.289,0.832,3.441h0.064c0.24-1.152,0.464-2.289,0.705-3.441l1.312-6.21h0.736L9.427,13.28
		H8.611L6.69,6.045C6.498,5.213,6.322,4.493,6.13,3.66H6.066C5.89,4.493,5.682,5.213,5.49,6.045L3.601,13.28H2.785L0.384,2.732z"/>
	<path d="M12.88,7.966c0-3.33,1.809-5.426,4.354-5.426c2.529,0,4.338,2.097,4.338,5.426c0,3.345-1.809,5.506-4.338,5.506
		C14.688,13.472,12.88,11.312,12.88,7.966z M20.803,7.966c0-2.914-1.441-4.754-3.57-4.754c-2.145,0-3.585,1.84-3.585,4.754
		c0,2.929,1.441,4.834,3.585,4.834C19.362,12.8,20.803,10.896,20.803,7.966z"/>
	<path d="M29.714,13.28l-2.849-4.85h-2.241v4.85h-0.736V2.732h3.009c2.097,0,3.474,0.769,3.474,2.785
		c0,1.681-1.057,2.641-2.705,2.865l2.897,4.898H29.714z M26.705,7.822c1.873,0,2.897-0.752,2.897-2.305
		c0-1.584-1.024-2.161-2.897-2.161h-2.081v4.466H26.705z"/>
	<path d="M32.735,2.732h0.736V8.59h0.032l5.106-5.858h0.864l-3.361,3.906l3.826,6.643H39.09l-3.474-6.083l-2.145,2.449v3.633h-0.736
		V2.732z"/>
	<path d="M41.04,11.375c0.769,0.864,1.873,1.425,3.105,1.425c1.601,0,2.625-0.865,2.625-2.113c0-1.312-0.864-1.745-1.905-2.208
		l-1.601-0.721c-0.913-0.4-2.129-1.056-2.129-2.625c0-1.521,1.312-2.593,3.057-2.593c1.281,0,2.305,0.576,2.946,1.265l-0.433,0.496
		c-0.607-0.656-1.457-1.088-2.513-1.088c-1.393,0-2.321,0.736-2.321,1.889c0,1.216,1.056,1.681,1.825,2.033l1.601,0.704
		c1.169,0.528,2.209,1.185,2.209,2.801s-1.328,2.833-3.378,2.833c-1.537,0-2.721-0.656-3.553-1.584L41.04,11.375z"/>
	<path d="M49.616,2.732h0.736v4.626h5.634V2.732h0.736V13.28h-0.736V7.998h-5.634v5.282h-0.736V2.732z"/>
	<path d="M59.04,7.966c0-3.33,1.809-5.426,4.354-5.426c2.529,0,4.338,2.097,4.338,5.426c0,3.345-1.809,5.506-4.338,5.506
		C60.849,13.472,59.04,11.312,59.04,7.966z M66.963,7.966c0-2.914-1.44-4.754-3.569-4.754c-2.145,0-3.585,1.84-3.585,4.754
		c0,2.929,1.44,4.834,3.585,4.834C65.522,12.8,66.963,10.896,66.963,7.966z"/>
	<path d="M70.048,2.732h2.881c2.353,0,3.745,0.769,3.745,2.945c0,2.065-1.408,3.073-3.745,3.073h-2.145v4.53h-0.736V2.732z
		 M72.736,8.126c2.161,0,3.186-0.72,3.186-2.449c0-1.777-1.04-2.321-3.186-2.321h-1.952v4.77H72.736z"/>
	<path d="M78.352,11.375c0.769,0.864,1.873,1.425,3.105,1.425c1.601,0,2.625-0.865,2.625-2.113c0-1.312-0.864-1.745-1.905-2.208
		l-1.601-0.721c-0.912-0.4-2.129-1.056-2.129-2.625c0-1.521,1.313-2.593,3.058-2.593c1.28,0,2.305,0.576,2.945,1.265l-0.433,0.496
		c-0.607-0.656-1.456-1.088-2.513-1.088c-1.393,0-2.321,0.736-2.321,1.889c0,1.216,1.057,1.681,1.825,2.033l1.601,0.704
		c1.169,0.528,2.209,1.185,2.209,2.801s-1.328,2.833-3.377,2.833c-1.537,0-2.722-0.656-3.554-1.584L78.352,11.375z"/>
</g>
</svg>