<!-- Generator: Adobe Illustrator 19.1.0, SVG Export Plug-In  -->
<svg version="1.1"
	 xmlns="http://www.w3.org/2000/svg" xmlns:xlink="http://www.w3.org/1999/xlink" xmlns:a="http://ns.adobe.com/AdobeSVGViewerExtensions/3.0/"
	 x="0px" y="0px" width="351.291px" height="405.636px" viewBox="0 0 351.291 405.636"
	 style="enable-background:new 0 0 351.291 405.636;" xml:space="preserve">
<style type="text/css">
	.st0{fill:#FACB46;}
	.st1{fill:#FFFFFF;}
</style>
<defs>
</defs>
<polygon class="st0" points="0,101.409 175.646,0 351.291,101.409 351.291,304.227 175.646,405.636 0,304.227 "/>
<path class="st0" d="M346.698,196.442c0,4.232,0,8.465,0,12.697c-0.12,0.768-0.263,1.534-0.357,2.306
	c-0.982,8.084-1.453,16.267-3.018,24.236c-7.578,38.579-26.371,70.833-56.074,96.521c-27.943,24.166-60.502,37.742-97.354,40.909
	c-2.515,0.216-5.025,0.486-7.538,0.732c-4.474,0-8.949,0-13.423,0c-0.765-0.126-1.526-0.33-2.295-0.367
	c-11.255-0.537-22.337-2.22-33.248-5.02C62.659,350.312,11.436,289.749,5.322,217.049c-0.222-2.639-0.485-5.274-0.728-7.91
	c0-4.232,0-8.465,0-12.697c0.123-0.829,0.323-1.654,0.359-2.487c0.48-11.203,2.147-22.238,4.922-33.088
	C28.21,89.18,89.524,37.801,163.415,32.267c19.818-1.484,39.335,0.537,58.478,5.922c68.713,19.329,118.058,79.132,124.077,150.342
	C346.193,191.169,346.454,193.805,346.698,196.442z M118.092,135.854c-2.577,0-5.037-0.065-7.492,0.014
	c-4.74,0.152-8.476,3.758-8.492,8.43c-0.059,16.925-0.026,33.851-0.013,50.776c0.002,2.441,1.07,4.428,2.828,6.062
	c1.989,1.85,4.406,2.299,7.042,2.297c42.797-0.024,85.595-0.016,128.392-0.019c0.725,0,1.454,0.007,2.174-0.064
	c4.244-0.421,7.725-3.955,7.741-8.216c0.063-16.986,0.039-33.972,0.011-50.957c-0.005-2.792-1.352-4.96-3.55-6.62
	c-1.882-1.421-4.046-1.728-6.342-1.727c-37.901,0.018-75.802,0.014-113.703,0.007c-0.88,0-1.76-0.079-2.718-0.125
	c0-4.615,0.03-9.023-0.017-13.43c-0.015-1.424,0.879-1.323,1.81-1.322c7.193,0.003,14.387,0.022,21.58-0.022
	c1.087-0.007,1.757,0.356,2.402,1.219c1.291,1.725,3.099,2.813,5.249,2.857c5.135,0.106,10.28,0.194,15.409-0.005
	c4.133-0.16,7.152-3.839,7.002-8.017c-0.151-4.194-3.389-7.271-7.677-7.277c-4.654-0.007-9.31,0.055-13.963-0.021
	c-3.124-0.051-5.38,1.327-6.779,3.984c-0.616,1.17-1.321,1.461-2.534,1.456c-8.341-0.032-16.683-0.057-25.022,0.084
	c-0.994,0.017-2.15,0.876-2.891,1.664c-0.472,0.502-0.424,1.593-0.429,2.421C118.076,124.726,118.092,130.153,118.092,135.854z
	 M96.52,207.395c0,0.443-0.035,0.629,0.005,0.796c1.022,4.277,4.393,6.733,9.291,6.734c46.918,0.004,93.835,0.003,140.753,0.002
	c0.484,0,0.969,0.012,1.45-0.025c4.209-0.316,7.66-3.612,7.767-7.507C202.724,207.395,149.665,207.395,96.52,207.395z
	 M172.557,288.799c-1.079,0-1.851,0-2.624,0c-8.884,0.001-17.768-0.009-26.652,0.008c-2.733,0.005-4.447,1.49-4.408,3.726
	c0.039,2.198,1.814,3.645,4.501,3.669c0.242,0.002,0.484,0.001,0.725,0.001c21.515,0,43.03,0.001,64.546-0.001
	c0.604,0,1.217,0.035,1.81-0.05c1.914-0.277,3.258-1.896,3.2-3.788c-0.057-1.839-1.386-3.286-3.274-3.506
	c-0.657-0.076-1.327-0.056-1.992-0.056c-8.824-0.003-17.647-0.017-26.471,0.013c-1.265,0.004-1.949-0.139-1.945-1.744
	c0.066-21.334,0.055-42.668,0.063-64.001c0-0.544-0.03-1.089-0.002-1.631c0.055-1.05-0.349-1.564-1.471-1.509
	c-1.206,0.06-2.417,0.007-3.625,0.01c-2.378,0.006-2.382,0.008-2.382,2.37c-0.001,21.274,0,42.547,0,63.821
	C172.557,286.907,172.557,287.685,172.557,288.799z"/>
<path class="st1" d="M118.092,135.854c0-5.701-0.016-11.128,0.017-16.554c0.005-0.828-0.044-1.918,0.429-2.421
	c0.741-0.788,1.897-1.647,2.891-1.664c8.339-0.141,16.681-0.116,25.022-0.084c1.213,0.005,1.918-0.287,2.534-1.456
	c1.398-2.657,3.654-4.035,6.779-3.984c4.653,0.076,9.309,0.014,13.963,0.021c4.288,0.007,7.525,3.083,7.677,7.277
	c0.151,4.178-2.868,7.857-7.002,8.017c-5.129,0.199-10.274,0.112-15.409,0.005c-2.15-0.044-3.958-1.132-5.249-2.857
	c-0.645-0.862-1.315-1.225-2.402-1.219c-7.193,0.044-14.387,0.024-21.58,0.022c-0.93,0-1.825-0.101-1.81,1.322
	c0.048,4.407,0.017,8.816,0.017,13.43c0.959,0.046,1.838,0.125,2.718,0.125c37.901,0.006,75.802,0.011,113.703-0.007
	c2.296-0.001,4.46,0.306,6.342,1.727c2.198,1.66,3.545,3.828,3.55,6.62c0.028,16.986,0.052,33.972-0.011,50.957
	c-0.016,4.261-3.497,7.796-7.741,8.216c-0.72,0.071-1.449,0.064-2.174,0.064c-42.797,0.003-85.595-0.004-128.392,0.019
	c-2.636,0.001-5.053-0.447-7.042-2.297c-1.758-1.635-2.826-3.622-2.828-6.062c-0.013-16.925-0.047-33.851,0.013-50.776
	c0.016-4.672,3.752-8.278,8.492-8.43C113.055,135.789,115.515,135.854,118.092,135.854z"/>
<path class="st1" d="M96.52,207.395c53.145,0,106.204,0,159.266,0c-0.108,3.895-3.558,7.191-7.767,7.507
	c-0.481,0.036-0.967,0.025-1.45,0.025c-46.918,0.001-93.835,0.003-140.753-0.002c-4.898,0-8.268-2.457-9.291-6.734
	C96.485,208.024,96.52,207.838,96.52,207.395z"/>
<path class="st1" d="M172.557,288.799c0-1.114,0-1.892,0-2.67c0-21.273,0-42.547,0-63.821c0-2.362,0.003-2.364,2.382-2.37
	c1.209-0.003,2.42,0.05,3.625-0.01c1.123-0.056,1.526,0.459,1.471,1.509c-0.028,0.542,0.002,1.088,0.002,1.631
	c-0.008,21.334,0.002,42.668-0.063,64.001c-0.005,1.605,0.68,1.748,1.945,1.744c8.824-0.03,17.647-0.016,26.471-0.013
	c0.664,0,1.334-0.02,1.992,0.056c1.888,0.219,3.217,1.667,3.274,3.506c0.058,1.892-1.286,3.511-3.2,3.788
	c-0.593,0.086-1.206,0.05-1.81,0.05c-21.515,0.002-43.03,0.002-64.546,0.001c-0.242,0-0.484,0.001-0.725-0.001
	c-2.687-0.024-4.462-1.471-4.501-3.669c-0.04-2.236,1.675-3.72,4.408-3.726c8.884-0.017,17.768-0.008,26.652-0.008
	C170.705,288.799,171.478,288.799,172.557,288.799z"/>
</svg>