<!-- Generator: Adobe Illustrator 19.1.0, SVG Export Plug-In  -->
<svg version="1.1"
	 xmlns="http://www.w3.org/2000/svg" xmlns:xlink="http://www.w3.org/1999/xlink" xmlns:a="http://ns.adobe.com/AdobeSVGViewerExtensions/3.0/"
	 x="0px" y="0px" width="526.218px" height="60.7px" viewBox="0 0 526.218 60.7" style="enable-background:new 0 0 526.218 60.7;"
	 xml:space="preserve">
<style type="text/css">
	.st0{fill:none;}
	.st1{fill:#25262B;}
	.st2{font-family:'SourceSansPro-Bold';}
	.st3{font-size:50px;}
</style>
<defs>
</defs>
<g>
	<rect y="6.451" class="st0" width="526.218" height="40.949"/>
	<path class="st1" d="M143.487,8.298c4.6,0,7.95,2.05,10.15,4.25l-4.051,4.551c-1.649-1.5-3.199-2.45-6-2.45
		c-5,0-8.6,3.95-8.6,10.501c0,6.7,3.049,10.601,9.199,10.601c1.301,0,2.65-0.351,3.451-1v-5.601h-5.4v-6.001h11.951v15.001
		c-2.351,2.051-6.4,3.95-10.951,3.95c-8.801,0-15.801-5.75-15.801-16.7C127.436,14.599,134.636,8.298,143.487,8.298z"/>
	<path class="st1" d="M160.635,8.898h7.35v18.251c0,6.4,2.001,8.601,5.65,8.601c3.65,0,5.801-2.2,5.801-8.601V8.898h7.101v17.501
		c0,10.95-4.45,15.7-12.901,15.7c-8.449,0-13-4.75-13-15.7V8.898z"/>
	<path class="st1" d="M193.935,8.898h20.451v6.2h-13.051v6.55h11.101v6.15h-11.101V35.3h13.551v6.2h-20.951V8.898z"/>
	<path class="st1" d="M223.384,32.35c2.3,2,5.3,3.4,8.001,3.4c3.05,0,4.55-1.2,4.55-3.15c0-2.05-1.851-2.7-4.7-3.9l-4.2-1.8
		c-3.4-1.351-6.601-4.15-6.601-8.9c0-5.4,4.851-9.701,11.602-9.701c3.75,0,7.699,1.5,10.5,4.301l-3.7,4.649
		c-2.15-1.649-4.2-2.6-6.8-2.6c-2.501,0-4.15,1.1-4.15,2.95c0,2,2.149,2.7,5,3.851l4.15,1.699c3.949,1.601,6.45,4.251,6.45,8.851
		c0,5.4-4.501,10.101-12.251,10.101c-4.25,0-8.75-1.6-12.101-4.7L223.384,32.35z"/>
	<path class="st1" d="M254.334,15.099h-9v-6.2h25.301v6.2h-8.95V41.5h-7.351V15.099z"/>
	<path class="st1" d="M275.684,8.898h11.15c6.801,0,12.051,1.85,12.051,8.1c0,2.9-1.7,6.051-5.5,7.051v0.2
		c4.649,0.85,7.1,3.3,7.1,7.65c0,6.65-5.6,9.601-12.701,9.601h-12.1V8.898z M286.485,22.049c3.6,0,5.199-1.55,5.199-4
		s-1.699-3.45-5.1-3.45h-3.5v7.45H286.485z M287.184,35.8c4,0,6.101-1.5,6.101-4.45c0-2.851-2.05-4.101-6.101-4.101h-4.1V35.8
		H287.184z"/>
	<path class="st1" d="M304.333,25.049c0-10.65,6.051-16.751,14.801-16.751c8.801,0,14.801,6.15,14.801,16.751
		c0,10.65-6,17.051-14.801,17.051C310.383,42.1,304.333,35.699,304.333,25.049z M326.383,25.049c0-6.5-2.799-10.4-7.25-10.4
		c-4.4,0-7.25,3.9-7.25,10.4c0,6.551,2.85,10.701,7.25,10.701C323.584,35.75,326.383,31.6,326.383,25.049z"/>
	<path class="st1" d="M338.483,25.049c0-10.65,6.05-16.751,14.801-16.751c8.801,0,14.801,6.15,14.801,16.751
		c0,10.65-6,17.051-14.801,17.051C344.533,42.1,338.483,35.699,338.483,25.049z M360.534,25.049c0-6.5-2.8-10.4-7.25-10.4
		c-4.4,0-7.25,3.9-7.25,10.4c0,6.551,2.85,10.701,7.25,10.701C357.734,35.75,360.534,31.6,360.534,25.049z"/>
	<path class="st1" d="M374.182,8.898h7.4v13.351h0.15l9.75-13.351h8.051l-9.85,13l11.7,19.602h-8.101l-7.9-13.751l-3.801,5V41.5
		h-7.4V8.898z"/>
</g>
</svg>