<!-- Generator: Adobe Illustrator 19.1.0, SVG Export Plug-In  -->
<svg version="1.1"
	 xmlns="http://www.w3.org/2000/svg" xmlns:xlink="http://www.w3.org/1999/xlink" xmlns:a="http://ns.adobe.com/AdobeSVGViewerExtensions/3.0/"
	 x="0px" y="0px" width="61.536px" height="17.872px" viewBox="0 0 61.536 17.872"
	 style="enable-background:new 0 0 61.536 17.872;" xml:space="preserve">
<style type="text/css">
	.st0{font-family:'SourceSansPro-Light';}
	.st1{font-size:16px;}
</style>
<defs>
</defs>
<g>
	<path d="M5.33,2.54c1.232,0,2.177,0.608,2.737,1.264l-0.433,0.48C7.059,3.644,6.291,3.212,5.33,3.212
		c-2.305,0-3.745,1.84-3.745,4.77S3.009,12.8,5.267,12.8c1.088,0,1.904-0.433,2.673-1.297l0.432,0.464
		c-0.8,0.928-1.761,1.504-3.137,1.504c-2.594,0-4.418-2.129-4.418-5.49C0.816,4.636,2.641,2.54,5.33,2.54z"/>
	<path d="M9.345,7.966c0-3.33,1.809-5.426,4.354-5.426c2.529,0,4.338,2.097,4.338,5.426c0,3.345-1.809,5.506-4.338,5.506
		C11.153,13.472,9.345,11.311,9.345,7.966z M17.268,7.966c0-2.914-1.44-4.754-3.569-4.754c-2.145,0-3.585,1.84-3.585,4.754
		c0,2.929,1.44,4.834,3.585,4.834C15.827,12.8,17.268,10.895,17.268,7.966z"/>
	<path d="M20.353,2.731h0.768l4.435,7.443l1.2,2.097h0.064c-0.049-1.024-0.097-2.049-0.097-3.073V2.731h0.688V13.28h-0.769
		l-4.434-7.443l-1.2-2.097h-0.064c0.048,1.009,0.097,1.969,0.097,2.993v6.547h-0.688V2.731z"/>
	<path d="M32.689,3.372h-3.361v-0.64h7.443v0.64h-3.346v9.908h-0.736V3.372z"/>
	<path d="M42.771,9.662h-4.178L37.36,13.28h-0.752l3.729-10.548h0.736l3.713,10.548h-0.784L42.771,9.662z M42.562,9.038L41.89,7.069
		c-0.416-1.249-0.8-2.353-1.168-3.649h-0.064c-0.368,1.296-0.736,2.401-1.168,3.649l-0.673,1.969H42.562z"/>
	<path d="M50.018,2.54c1.232,0,2.177,0.608,2.737,1.264l-0.433,0.48c-0.576-0.64-1.344-1.072-2.305-1.072
		c-2.305,0-3.745,1.84-3.745,4.77s1.424,4.818,3.682,4.818c1.088,0,1.904-0.433,2.673-1.297l0.432,0.464
		c-0.8,0.928-1.761,1.504-3.137,1.504c-2.594,0-4.418-2.129-4.418-5.49C45.504,4.636,47.328,2.54,50.018,2.54z"/>
	<path d="M57.041,3.372H53.68v-0.64h7.443v0.64h-3.346v9.908h-0.736V3.372z"/>
</g>
</svg>