<!-- Generator: Adobe Illustrator 19.1.0, SVG Export Plug-In  -->
<svg version="1.1"
	 xmlns="http://www.w3.org/2000/svg" xmlns:xlink="http://www.w3.org/1999/xlink" xmlns:a="http://ns.adobe.com/AdobeSVGViewerExtensions/3.0/"
	 x="0px" y="0px" width="254.939px" height="294.378px" viewBox="0 0 254.939 294.378"
	 style="enable-background:new 0 0 254.939 294.378;" xml:space="preserve">
<style type="text/css">
	.st0{fill:#FACB46;}
</style>
<defs>
</defs>
<polygon class="st0" points="254.939,220.784 127.469,294.378 0,220.784 0,73.595 127.469,0 254.939,73.595 "/>
<path d="M198.886,102.965c0,0.281,0,0.562,0,0.842c-0.106,0.083-0.239,0.147-0.315,0.252c-3.599,5.013-7.868,9.376-12.692,13.218
	c-0.433,0.345-0.75,1.055-0.803,1.625c-0.517,5.583-0.527,11.25-1.515,16.744c-3.465,19.269-12.121,35.853-26.664,49.144
	c-10.954,10.011-23.753,16.447-38.337,19.272c-2.696,0.522-5.414,0.93-8.123,1.391c-6.271,0-12.542,0-18.813,0
	c-1.37-0.217-2.74-0.441-4.112-0.648c-10.097-1.524-19.477-5.088-28.388-9.98c-1.046-0.574-2.05-1.226-3.073-1.842
	c0.025-0.123,0.049-0.245,0.074-0.368c7.51,0.039,15.006,0.183,22.323-2.001c7.254-2.165,13.914-5.391,20.267-10.141
	c-6.398-0.673-12.018-2.442-16.865-6.165c-4.854-3.729-8.363-8.432-10.251-14.513c1.201,0.074,2.163,0.155,3.128,0.186
	c1.028,0.032,2.059,0.033,3.087,0.014c0.982-0.018,1.967-0.039,2.943-0.135c0.959-0.094,1.909-0.284,2.862-0.432
	c-6.626-2.047-12.127-5.591-16.216-11.011c-4.04-5.354-6.474-11.371-6.062-18.352c2.123,0.794,4.047,1.654,6.053,2.226
	c2.006,0.571,4.095,0.854,6.148,1.263c-14.865-11.786-13.778-30.123-8.015-39.29c16.006,18.369,35.883,29.051,60.526,30.666
	c-0.094-0.828-0.25-1.469-0.226-2.103c0.147-3.866-0.308-7.895,0.63-11.565c2.802-10.956,10.014-18.009,20.775-21.426
	c1.189-0.378,2.425-0.61,3.639-0.91c2.621,0,5.241,0,7.862,0c0.167,0.073,0.329,0.191,0.502,0.211
	c6.046,0.716,11.262,3.248,15.694,7.354c1.38,1.279,2.79,1.616,4.464,0.978c4.784-1.825,9.554-3.687,14.331-5.532
	c0.491-0.19,0.988-0.363,1.758-0.645c-2.382,6.518-6.415,11.381-11.492,15.53C189.211,106.33,194.046,104.638,198.886,102.965z"/>
</svg>