<!-- Generator: Adobe Illustrator 19.1.0, SVG Export Plug-In  -->
<svg version="1.1"
	 xmlns="http://www.w3.org/2000/svg" xmlns:xlink="http://www.w3.org/1999/xlink" xmlns:a="http://ns.adobe.com/AdobeSVGViewerExtensions/3.0/"
	 x="0px" y="0px" width="442.086px" height="510.477px" viewBox="0 0 442.086 510.477"
	 style="enable-background:new 0 0 442.086 510.477;" xml:space="preserve">
<style type="text/css">
	.st0{fill:#25262B;}
	.st1{fill:#FACB46;}
	.st2{fill:none;}
	.st3{font-family:'FiraSans-Regular';}
	.st4{font-size:85px;}
	.st5{letter-spacing:-2;}
	.st6{font-family:'FiraSans-Bold';}
	.st7{font-family:'SourceSansPro-ExtraLight';}
	.st8{font-size:58px;}
	.st9{letter-spacing:-3;}
	.st10{letter-spacing:-4;}
</style>
<defs>
</defs>
<polygon class="st0" points="0,127.619 221.043,0 442.086,127.619 442.086,382.858 221.043,510.477 0,382.858 "/>
<g>
	<path class="st1" d="M81.606,215.672v51.684H73.53v-51.684H56.869v-6.886h41.824l-0.85,6.886H81.606z"/>
	<path class="st1" d="M113.565,239.899v27.457h-8.076v-58.569h8.076v24.481h24.652v-24.481h8.076v58.569h-8.076v-27.457H113.565z"/>
	<path class="st1" d="M168.814,215.246v19.127h19.722v6.46h-19.722v20.062h24.312v6.461h-32.388v-58.569h31.708l-0.935,6.46H168.814
		z"/>
	<path class="st1" d="M234.602,242.109v25.247h-13.94v-58.909h13.94v22.781h17.682v-22.781h13.941v58.909h-13.941v-25.247H234.602z"
		/>
	<path class="st1" d="M276.421,267.356v-58.909h13.94v58.909H276.421z"/>
	<path class="st1" d="M310.932,267.356l-17.002-58.909h14.707l11.221,48.028l10.541-48.028h14.28l-16.406,58.909H310.932z"/>
	<path class="st1" d="M362.101,218.392v14.111h18.106v9.775h-18.106v15.046h22.187v10.031H348.16v-58.909h36.128l-1.445,9.945
		H362.101z"/>
</g>
<g>
	<rect x="57.916" y="282.561" class="st2" width="353.096" height="54.134"/>
	<path class="st1" d="M104.603,285.462c4.408,0,7.772,2.204,9.744,4.523l-1.16,1.276c-2.088-2.437-4.988-4.061-8.583-4.061
		c-8.816,0-14.152,6.96-14.152,17.98c0,11.02,5.336,18.211,13.92,18.211c4.06,0,7.076-1.624,9.976-4.872l1.16,1.16
		c-2.9,3.364-6.264,5.452-11.252,5.452c-9.396,0-15.775-7.888-15.775-19.951C88.48,293.117,94.86,285.462,104.603,285.462z"/>
	<path class="st1" d="M117.016,305.181c0-12.064,6.496-19.72,15.543-19.72s15.543,7.655,15.543,19.72
		c0,12.063-6.496,19.951-15.543,19.951S117.016,317.245,117.016,305.181z M146.131,305.181c0-11.021-5.452-17.98-13.572-17.98
		s-13.572,6.96-13.572,17.98c0,11.02,5.452,18.211,13.572,18.211S146.131,316.201,146.131,305.181z"/>
	<path class="st1" d="M151.119,309.125h12.528v1.74h-12.528V309.125z"/>
	<path class="st1" d="M182.671,285.462c4.408,0,7.772,2.204,9.744,4.523l-1.16,1.276c-2.088-2.437-4.988-4.061-8.583-4.061
		c-8.816,0-14.152,6.96-14.152,17.98c0,11.02,5.336,18.211,13.92,18.211c4.06,0,7.076-1.624,9.976-4.872l1.16,1.16
		c-2.9,3.364-6.264,5.452-11.252,5.452c-9.396,0-15.775-7.888-15.775-19.951C166.547,293.117,172.927,285.462,182.671,285.462z"/>
	<path class="st1" d="M220.138,324.436L209.35,306.34h-8.584v18.096h-1.856v-38.279h10.556c7.54,0,12.295,2.784,12.295,9.86
		c0,6.09-3.943,9.628-10.323,10.208l10.903,18.211H220.138z M208.77,304.716c7.075,0,11.02-2.783,11.02-8.699
		c0-6.032-3.944-8.236-11.02-8.236h-8.004v16.936H208.77z"/>
	<path class="st1" d="M228.141,286.157h20.531v1.624h-18.676v15.428h15.659v1.624h-15.659v17.979h19.256v1.624h-21.111V286.157z"/>
	<path class="st1" d="M271.988,310.749h-15.602l-4.813,13.688h-1.856l13.688-38.279h1.623l13.688,38.279h-1.973L271.988,310.749z
		 M271.408,309.125l-2.668-7.655c-1.623-4.641-3.016-8.584-4.407-13.34H264.1c-1.392,4.756-2.784,8.699-4.407,13.34l-2.727,7.655
		H271.408z"/>
	<path class="st1" d="M288.345,287.781h-12.412v-1.624h26.68v1.624H290.2v36.655h-1.855V287.781z"/>
	<path class="st1" d="M307.368,286.157h1.856v38.279h-1.856V286.157z"/>
	<path class="st1" d="M315.488,305.181c0-12.064,6.496-19.72,15.544-19.72s15.544,7.655,15.544,19.72
		c0,12.063-6.496,19.951-15.544,19.951S315.488,317.245,315.488,305.181z M344.603,305.181c0-11.021-5.451-17.98-13.571-17.98
		s-13.571,6.96-13.571,17.98c0,11.02,5.451,18.211,13.571,18.211S344.603,316.201,344.603,305.181z"/>
	<path class="st1" d="M352.841,286.157h1.972l16.936,28.071l4.408,7.54h0.231c-0.116-3.712-0.231-7.191-0.231-10.787v-24.824h1.739
		v38.279h-1.972l-16.936-28.071l-4.408-7.54h-0.231c0.115,3.597,0.231,6.844,0.231,10.44v25.171h-1.739V286.157z"/>
</g>
</svg>