<!-- Generator: Adobe Illustrator 19.1.0, SVG Export Plug-In  -->
<svg version="1.1"
	 xmlns="http://www.w3.org/2000/svg" xmlns:xlink="http://www.w3.org/1999/xlink" xmlns:a="http://ns.adobe.com/AdobeSVGViewerExtensions/3.0/"
	 x="0px" y="0px" width="351.291px" height="405.636px" viewBox="0 0 351.291 405.636"
	 style="enable-background:new 0 0 351.291 405.636;" xml:space="preserve">
<style type="text/css">
	.st0{fill:#FACB46;}
	.st1{fill:#FFFFFF;}
</style>
<defs>
</defs>
<path class="st0" d="M303.646,331.318c-85.333,0-170.667,0-256,0c0-85.333,0-170.667,0-256c2.162,0.064,4.324,0.185,6.486,0.185
	c80.818,0.01,161.636,0.008,242.454,0.008c2.12,0,4.24,0,6.867,0c0,2.45,0,4.408,0,6.367c0,80.985-0.001,161.969,0.008,242.954
	C303.461,326.994,303.581,329.156,303.646,331.318z M190.791,107.205c-1.625,0.083-2.632,0.034-3.602,0.198
	c-35.588,5.992-71.163,12.06-106.769,17.939c-4.424,0.73-5.809,2.416-5.789,7.056c0.203,47.151,0.213,94.304-0.005,141.455
	c-0.023,5.079,1.607,6.778,6.398,7.556c29.381,4.775,58.715,9.835,88.069,14.773c7.122,1.198,14.26,2.294,21.698,3.485
	C190.791,235.141,190.791,171.409,190.791,107.205z M195.374,169.326c3.049-0.269,5.726-0.506,8.964-0.792
	c0,8.451,0,16.219,0,24.776c8.689,0,16.891,0,25.013,0c0.844,16.256-12.594,25.187-33.938,23.392
	c-1.755,8.143-1.334,8.708,6.511,8.711c5.996,0.002,11.993,0,17.989,0c6.778,0,13.555,0,20.453,0c0,3.21,0,5.76,0,8.862
	c-15.27,0-30.166,0-44.951,0c-1.368,7.888-1.187,8.132,5.666,8.136c8.995,0.006,17.989,0.002,26.984,0.002c4.1,0,8.2,0,12.239,0
	c0,3.311,0,5.863,0,8.976c-15.323,0-30.209,0-45.121,0c0,3.984,0,7.375,0,10.916c1.739,0.082,3.059,0.198,4.379,0.199
	c18.989,0.012,37.979-0.105,56.966,0.09c4.604,0.047,6.102-1.545,6.082-6.087c-0.137-30.981-0.062-61.963-0.083-92.945
	c-0.004-6.247-0.461-6.654-6.972-6.659c-16.823-0.014-33.647-0.005-50.47-0.005C193.484,156.896,193.208,157.238,195.374,169.326z
	 M267.754,152.412c0,2.4,0,4.191,0,5.982c0.001,25.486-0.003,50.972,0.008,76.458c0.001,2.624-0.591,5.494,3.74,5.403
	c3.989-0.084,5.091-1.985,5.081-5.658c-0.08-28.484-0.118-56.969,0.023-85.453c0.024-4.801-1.726-6.362-6.469-6.327
	c-23.486,0.176-46.974,0.141-70.461,0.015c-3.529-0.019-5.022,0.746-5.049,4.66c-0.028,4.066,1.418,5.022,5.243,4.995
	C222.175,152.333,244.484,152.412,267.754,152.412z"/>
<path class="st1" d="M303.646,331.318c-0.064-2.162-0.185-4.324-0.185-6.486c-0.01-80.985-0.008-161.969-0.008-242.954
	c0-1.959,0-3.917,0-6.367c-2.626,0-4.747,0-6.867,0c-80.818,0-161.636,0.001-242.454-0.008c-2.162,0-4.324-0.121-6.486-0.185
	c1.5-0.333,3-0.958,4.5-0.958c84.167-0.047,168.333-0.042,252.5-0.042c0,84.167,0.005,168.333-0.042,252.5
	C304.603,328.318,303.979,329.818,303.646,331.318z"/>
<polygon class="st0" points="0,101.409 175.646,0 351.291,101.409 351.291,304.227 175.646,405.636 0,304.227 "/>
<path class="st1" d="M190.791,107.205c0,64.203,0,127.936,0,192.462c-7.438-1.192-14.576-2.288-21.698-3.485
	c-29.354-4.938-58.689-9.998-88.069-14.773c-4.791-0.779-6.421-2.477-6.398-7.556c0.218-47.151,0.208-94.304,0.005-141.455
	c-0.02-4.64,1.365-6.326,5.789-7.056c35.606-5.879,71.181-11.947,106.769-17.939C188.159,107.239,189.166,107.288,190.791,107.205z
	 M127.636,214.433c1.625-0.137,2.6-0.28,3.577-0.293c14.584-0.195,22.382-7.223,22.867-21.744
	c0.376-11.243-2.874-20.317-15.006-21.395c-7.207-0.64-14.518-0.117-21.862-0.117c0,22.674,0,43.855,0,65.2
	c3.615,0,6.856,0,10.424,0C127.636,228.807,127.636,221.857,127.636,214.433z"/>
<path class="st1" d="M195.374,169.326c-2.166-12.088-1.89-12.43,9.71-12.43c16.823,0,33.647-0.009,50.47,0.005
	c6.512,0.005,6.968,0.412,6.972,6.659c0.021,30.982-0.054,61.964,0.083,92.945c0.02,4.542-1.478,6.134-6.082,6.087
	c-18.987-0.195-37.977-0.078-56.966-0.09c-1.32-0.001-2.639-0.117-4.379-0.199c0-3.541,0-6.932,0-10.916c14.912,0,29.798,0,45.121,0
	c0-3.113,0-5.665,0-8.976c-4.039,0-8.139,0-12.239,0c-8.995,0-17.989,0.005-26.984-0.002c-6.853-0.005-7.034-0.248-5.666-8.136
	c14.785,0,29.681,0,44.951,0c0-3.102,0-5.653,0-8.862c-6.898,0-13.675,0-20.453,0c-5.996,0-11.993,0.001-17.989,0
	c-7.844-0.002-8.266-0.568-6.511-8.711c21.344,1.795,34.782-7.136,33.938-23.392c-8.123,0-16.324,0-25.013,0
	c0-8.557,0-16.325,0-24.776C201.1,168.82,198.423,169.056,195.374,169.326z M232.347,188.894
	c0.915-13.076-11.141-25.176-23.448-23.882c0,7.874,0,15.764,0,23.882C216.853,188.894,224.446,188.894,232.347,188.894z"/>
<path class="st1" d="M267.754,152.412c-23.27,0-45.578-0.079-67.885,0.076c-3.826,0.026-5.271-0.929-5.243-4.995
	c0.027-3.914,1.52-4.679,5.049-4.66c23.487,0.126,46.975,0.161,70.461-0.015c4.744-0.035,6.493,1.526,6.469,6.327
	c-0.14,28.484-0.103,56.969-0.023,85.453c0.01,3.673-1.092,5.574-5.081,5.658c-4.331,0.092-3.739-2.779-3.74-5.403
	c-0.01-25.486-0.007-50.972-0.008-76.458C267.754,156.603,267.754,154.812,267.754,152.412z"/>
<path class="st0" d="M127.636,214.433c0,7.424,0,14.375,0,21.651c-3.568,0-6.808,0-10.424,0c0-21.345,0-42.526,0-65.2
	c7.345,0,14.655-0.523,21.862,0.117c12.132,1.078,15.382,10.152,15.006,21.395c-0.485,14.52-8.283,21.548-22.867,21.744
	C130.236,214.153,129.261,214.295,127.636,214.433z M132.247,180.302c-2.13,2.273-4.369,3.544-4.506,5.013
	c-0.462,4.931-0.312,9.938-0.061,14.9c0.051,1.018,1.765,2.915,2.343,2.784c3.242-0.737,7.28-1.098,9.335-3.234
	c3.405-3.539,3.52-8.799,1.038-13.015C138.951,184.297,135.683,182.917,132.247,180.302z"/>
<path class="st0" d="M232.347,188.894c-7.901,0-15.494,0-23.448,0c0-8.118,0-16.008,0-23.882
	C221.206,163.718,233.261,175.818,232.347,188.894z"/>
<path class="st1" d="M132.247,180.302c3.436,2.615,6.705,3.994,8.149,6.447c2.482,4.216,2.367,9.476-1.038,13.015
	c-2.055,2.136-6.093,2.497-9.335,3.234c-0.578,0.132-2.292-1.766-2.343-2.784c-0.25-4.961-0.401-9.969,0.061-14.9
	C127.878,183.846,130.117,182.575,132.247,180.302z"/>
</svg>