<!-- Generator: Adobe Illustrator 19.1.0, SVG Export Plug-In  -->
<svg version="1.1"
	 xmlns="http://www.w3.org/2000/svg" xmlns:xlink="http://www.w3.org/1999/xlink" xmlns:a="http://ns.adobe.com/AdobeSVGViewerExtensions/3.0/"
	 x="0px" y="0px" width="400px" height="180px" viewBox="0 0 400 180" style="enable-background:new 0 0 400 180;"
	 xml:space="preserve">
<defs>
</defs>
<path d="M104,0c7.069,2.913,7.069,2.913,5.186,12.082c-8.803-2.809-17.976-5.894-24.214,4.326
	c-3.307,5.418-3.116,11.423,0.885,16.38c6.527,8.086,15.117,5.604,23.428,3.567c0.2,0.268,0.518,0.498,0.541,0.754
	c0.878,10.084,0.555,10.773-9.632,10.683c-5.546-0.049-11.391-0.593-16.553-2.442c-10.039-3.596-13.968-11.328-13.632-23.987
	C70.25,12.261,75.826,4.827,84.86,1.552C86.245,1.05,87.62,0.518,89,0C94,0,99,0,104,0z"/>
<path d="M400,10c-3.466,0-6.932,0-10.93,0c0,12.316,0,24.347,0,36.681c-4.432,0-8.341,0-12.789,0c0-11.956,0-23.99,0-36.631
	c-4.05,0-7.598,0-11.355,0c0-3.224,0-5.836,0-9.05C376.618,1,388.309,1,400,1C400,4,400,7,400,10z"/>
<path d="M0,133c3.996,0.002,7.993-0.004,11.989,0.007c7.993,0.023,11.714,2.401,13.336,8.509c1.565,5.894-0.633,10.16-6.822,13.821
	c3.534,7.68,7.047,15.314,10.689,23.228c-3.797,1.531-5.838,0.613-7.099-2.932c-1.331-3.743-3.019-7.364-4.633-11.002
	c-2.942-6.632-4.356-7.371-12.393-6.425c0,6.705,0,13.478,0,20.793c-1.966,0-3.517,0-5.068,0C0,163.667,0,148.333,0,133z
	 M5.114,152.87c5.69,0.33,11.438,1.198,14.434-4.408c1.137-2.128,0.915-6.405-0.539-8.212c-3.522-4.377-8.888-2.787-13.895-2.769
	C5.114,142.773,5.114,147.534,5.114,152.87z"/>
<path d="M79,180c-2.905-1.229-4.592-2.976-3.131-5.465c5.071,0.212,9.822,1.089,14.284,0.312c2.249-0.392,4.699-3.471,5.754-5.901
	c1.351-3.111-0.094-6.194-3.2-8.076c-3.551-2.152-7.205-4.143-10.673-6.42c-5.924-3.89-7.785-8.02-6.27-13.277
	c1.553-5.387,6.413-8.882,12.894-9.067c2.311-0.066,4.639,0.191,6.948,0.422c3.184,0.318,4.49,1.841,3.262,4.323
	c-4.064,0-7.794-0.205-11.492,0.06c-3.408,0.244-6.62,1.998-6.531,5.586c0.063,2.527,1.714,5.578,3.624,7.355
	c2.484,2.312,5.935,3.582,8.957,5.322c4.728,2.723,8.362,6.451,8.166,12.192c-0.198,5.813-3.291,9.985-9.023,11.894
	c-0.245,0.082-0.383,0.487-0.57,0.741C87.667,180,83.333,180,79,180z"/>
<path d="M254,180c-14.633-7.711-19.79-19.24-14.896-33.303c4.088-11.747,19.658-18.653,30.878-13.506
	c1.141,0.524,1.625,2.481,3.172,5.015c-11.836-2.269-22.286-3.71-28.048,7.67c-3.998,7.896-3.668,16.219,1.788,23.567
	c4.72,6.356,12.372,7.668,24.296,4.864c2.207,3.027-0.269,4.254-2.19,5.694C264,180,259,180,254,180z"/>
<path d="M155.04,46.814c-5.096,0-9.225,0-12.581,0c-2.998-5.969-5.58-11.596-8.701-16.905c-0.607-1.034-3.311-0.835-5.608-1.324
	c0,6.283,0,12.02,0,18.08c-4.363,0-8.27,0-12.55,0c0-15.007,0-30.051,0-45.201c9.572,0,19.137-0.484,28.617,0.203
	c4.762,0.345,7.672,4.367,8.458,9.299c0.816,5.127-1.424,9.222-6.581,12.824C149.029,31.345,151.917,38.778,155.04,46.814z
	 M128.26,20.682c4.018-1.288,7.498-2.158,10.698-3.635c0.643-0.297,0.871-3.346,0.175-4.365c-2.729-3.997-6.895-2.619-10.872-2.559
	C128.26,13.381,128.26,16.274,128.26,20.682z"/>
<path d="M246.943,46.995c-2.46,0-4.318-0.25-6.083,0.046c-5.788,0.971-9.633-0.715-10.468-7.025
	c-0.043-0.323-0.173-0.883-0.327-0.907c-4.201-0.634-8.397-1.475-12.624-1.677c-1.803-0.086-4.302,0.665-5.365,1.957
	c-1.707,2.073-1.975,6.524-3.762,7.088c-3.605,1.138-7.821,0.339-12.34,0.339c5.684-14.868,11.199-29.427,16.896-43.913
	c0.395-1.005,2.094-2.01,3.26-2.102c3.476-0.276,6.997-0.237,10.481-0.017c1.107,0.07,2.788,0.842,3.132,1.716
	C235.515,17.129,241.116,31.825,246.943,46.995z M221.26,11.13c-2.096,6.402-3.738,11.416-5.479,16.732c3.742,0,6.844,0,10.518,0
	C224.705,22.568,223.213,17.615,221.26,11.13z"/>
<path d="M159.628,0.945c10.863,0,21.444,0,32.352,0c0,2.97,0,5.69,0,8.887c-6.463,0-12.722,0-19.32,0c0,3.188,0,5.905,0,9.084
	c6.094,0,12.016,0,18.287,0c0,3.145,0,5.846,0,8.982c-6.063,0-11.998,0-18.282,0c0,3.474,0,6.524,0,10.095
	c6.751,0,13.322,0,20.104,0c0,3.11,0,5.711,0,8.659c-10.926,0-21.835,0-33.14,0C159.628,31.693,159.628,16.649,159.628,0.945z"/>
<path d="M283.482,0.97c10.758,0,21.359,0,32.394,0c0,2.747,0,5.473,0,8.709c-6.304,0-12.723,0-19.507,0c0,3.211,0,5.934,0,9.215
	c5.968,0,12.038,0,18.359,0c0,3.132,0,5.739,0,8.89c-5.95,0-12.025,0-18.409,0c0,3.583,0,6.634,0,10.067c6.7,0,13.306,0,20.291,0
	c0,3.075,0,5.79,0,8.83c-10.852,0-21.782,0-33.128,0C283.482,31.62,283.482,16.436,283.482,0.97z"/>
<path d="M243.563,0.953c11.927,0,23.347,0,35.068,0c0,2.987,0,5.717,0,8.981c-3.5,0-6.91,0-10.732,0c0,12.423,0,24.332,0,36.647
	c-4.457,0-8.486,0-13.142,0c0-12.006,0-24.048,0-36.524c-4.028,0-7.45,0-11.194,0C243.563,6.887,243.563,4.163,243.563,0.953z"/>
<path d="M282.299,113.242c0-15.698,0-30.766,0-46.443c10.979,0.231,22.739-2.678,30.391,7.885
	c6.219,8.586,6.459,18.751,1.252,27.856C306.954,114.757,294.492,113.201,282.299,113.242z M287.257,108.953
	c8.496-0.1,16.938-0.007,21.853-8.121c4.456-7.356,4.414-15.479-0.201-22.702c-5.023-7.862-13.384-7.262-21.652-7.023
	C287.257,83.837,287.257,96.214,287.257,108.953z"/>
<path d="M205.44,179.071c-2.08,0-3.363,0-5.009,0c0-15.163,0-30.214,0-45.686c5.746,0,11.696-0.512,17.506,0.167
	c4.41,0.515,7.253,3.903,7.985,8.477c1.042,6.514-0.762,9.7-6.941,13.317c3.527,7.683,7.032,15.318,10.669,23.242
	c-3.544,1.328-5.62,0.968-6.864-2.589c-1.365-3.903-3.194-7.646-4.863-11.44c-2.903-6.595-4.509-7.428-12.483-6.25
	C205.44,164.974,205.44,171.734,205.44,179.071z M205.309,153.518c4.111-0.576,7.628-0.59,10.808-1.633
	c4.227-1.387,5.974-5.585,4.726-9.6c-1.203-3.87-6.307-5.824-12.792-4.968c-4.796,0.633-2.312,4.309-2.648,6.63
	C205.006,146.678,205.309,149.51,205.309,153.518z"/>
<path d="M311.813,133.258c1.933-0.107,3.199-0.176,4.83-0.266c0,15.377,0,30.572,0,46.02c-1.346,0-2.607,0-4.47,0
	c0-6.924,0-13.811,0-20.962c-7.852,0-15.108,0-22.945,0c0,6.794,0,13.679,0,20.444c-5.042,0.924-5.131,0.924-5.143-3.145
	c-0.043-13.799-0.016-27.599-0.016-41.866c1.454-0.199,2.827-0.387,4.731-0.648c0,6.725,0,13.131,0,19.88c7.859,0,15.235,0,23.013,0
	C311.813,146.466,311.813,140.214,311.813,133.258z"/>
<path d="M69.764,112.365C75.759,97.796,81.709,83.208,87.847,68.7c0.412-0.973,2.243-1.852,3.418-1.856
	c1.201-0.004,3.111,0.837,3.503,1.8c5.939,14.569,11.68,29.22,17.498,43.929c-3.493,1.442-5.145,0.61-6.417-2.642
	c-3.544-9.059-3.696-8.999-13.253-8.999c-0.5,0-1.01,0.067-1.498-0.01c-8.066-1.27-14.178,0.353-15.797,9.784
	c-0.214,1.248-2.723,2.103-4.17,3.14C70.675,113.352,70.22,112.859,69.764,112.365z M100.317,95.923
	c-3.098-7.842-6.008-15.205-9.388-23.759c-3.411,8.676-6.28,15.974-9.34,23.759C88.058,95.923,93.878,95.923,100.317,95.923z"/>
<path d="M347.083,0.977c3.944,0,7.689,0,11.831,0c0,15.234,0,30.38,0,45.773c-3.926,0-7.681,0-11.831,0
	C347.083,31.542,347.083,16.404,347.083,0.977z"/>
<path d="M147.858,178.707c6.022-14.655,11.943-29.184,18.041-43.638c0.412-0.976,2.188-1.96,3.287-1.914
	c1.329,0.056,3.372,0.893,3.799,1.931c5.912,14.368,11.6,28.828,17.397,43.4c-3.373,1.541-5.647,0.945-6.273-2.419
	c-1.459-7.836-6.047-10.624-13.656-9.094c-0.799,0.161-1.677,0.139-2.485,0.003c-7.518-1.261-12.749,0.806-14.094,9.166
	C153.359,179.339,151.133,179.899,147.858,178.707z M169.148,138.183c-3.452,8.79-6.407,16.317-9.448,24.061
	c6.58,0,12.387,0,18.812,0C175.423,154.306,172.567,146.967,169.148,138.183z"/>
<path d="M114.48,179.292c0-15.675,0-30.605,0-45.912c7.653,0,15.194,0,22.79,0c1.176,2.978-0.003,3.985-2.869,3.94
	c-4.633-0.073-9.269-0.02-14.263-0.02c0,5.361,0,10.249,0,15.77c4.475,0,8.924-0.133,13.354,0.094
	c1.104,0.057,2.148,1.277,3.22,1.963c-1.077,0.877-2.107,2.432-3.24,2.511c-4.291,0.299-8.616,0.12-13.314,0.12
	c0,5.725,0,11.13,0,17.122c5.782,0,11.687,0,17.591,0c0.302,0.509,0.605,1.017,0.907,1.526c-1.055,0.962-2.079,2.715-3.168,2.756
	C128.684,179.419,121.867,179.292,114.48,179.292z"/>
<path d="M46.584,175.041c6.304,0,12.245,0,18.186,0c0.298,0.465,0.596,0.93,0.893,1.395c-1.067,0.953-2.105,2.688-3.207,2.73
	c-6.804,0.255-13.622,0.128-20.826,0.128c0-15.461,0-30.518,0-45.933c7.408,0,14.825,0,22.545,0c1.3,2.736,0.43,4.008-2.84,3.96
	c-4.785-0.07-9.572-0.018-14.686-0.018c0,5.496,0,10.384,0,15.768c4.712,0,9.183-0.161,13.628,0.107
	c1.189,0.072,2.299,1.457,3.445,2.24c-1.179,0.782-2.32,2.162-3.542,2.237c-4.429,0.273-8.886,0.107-13.596,0.107
	C46.584,163.66,46.584,168.93,46.584,175.041z"/>
<path d="M249.623,91.761c0,5.922,0,11.319,0,17.168c6.149,0,12.072,0,19.909,0c-1.706,2.186-2.514,4.165-3.392,4.197
	c-7.102,0.254-14.216,0.143-21.609,0.143c0-15.642,0-30.705,0-46.514c7.052,0,13.971-0.1,20.878,0.142
	c0.764,0.027,1.459,2.012,2.814,4.019c-7.02,0-12.626,0-18.57,0c0,5.474,0,10.531,0,16.154c4.637,0,9.091-0.157,13.521,0.103
	c1.22,0.072,2.366,1.39,3.546,2.136c-1.139,0.818-2.238,2.266-3.424,2.341C258.856,91.93,254.388,91.761,249.623,91.761z"/>
<path d="M162.01,93.582c0,6.604,0,12.86,0,19.237c-2.74,0.576-4.974,1.331-4.959-2.568c0.053-14.257,0.021-28.514,0.021-43.77
	c6.104,0.325,11.909,0.06,17.476,1.086c6.088,1.122,9.059,6.395,8.695,13.276c-0.333,6.311-4.347,11.061-10.546,12.02
	C169.445,93.367,166.108,93.327,162.01,93.582z M162.179,88.991c5.672-0.185,11.766,1.148,14.661-4.421
	c1.387-2.668,1.152-7.594-0.482-10.115c-3.216-4.964-8.961-3.459-14.179-3.205C162.179,77.18,162.179,82.764,162.179,88.991z"/>
<path d="M126.16,113.007c-1.855,0-3.112,0-4.731,0c0-15.228,0-30.402,0-46.459c5.64,0.249,11.276-0.024,16.718,0.876
	c6.119,1.012,9.317,6.193,9.131,12.995c-0.179,6.537-4.264,11.479-10.652,12.453c-3.251,0.496-6.581,0.467-10.466,0.712
	C126.16,100.025,126.16,106.394,126.16,113.007z M126.177,89.09c5.645-0.397,11.788,1.14,14.664-4.513
	c1.371-2.694,1.15-7.601-0.484-10.122c-3.218-4.963-8.962-3.462-14.18-3.201C126.177,77.184,126.177,82.769,126.177,89.09z"/>
<path d="M192.489,66.909c1.55,0,2.837,0,4.658,0c0,13.887,0,27.61,0,41.892c6.392,0,12.272,0,18.201,0
	c1.045,3.081,0.618,4.546-2.52,4.516c-6.64-0.062-13.281-0.019-20.339-0.019C192.489,97.822,192.489,82.649,192.489,66.909z"/>
<path d="M229.144,67.271c0,15.269,0,30.219,0,45.401c-3.266,1.2-4.986,0.804-4.95-3.207c0.115-12.987,0.114-25.977-0.003-38.964
	C224.159,66.932,225.566,66.069,229.144,67.271z"/>
<path d="M323.459,19.273c5.456,0,10.844,0,16.541,0c0,2.735,0,5.312,0,8.275c-5.393,0-10.768,0-16.541,0
	C323.459,24.927,323.459,22.24,323.459,19.273z"/>
</svg>