<!-- Generator: Adobe Illustrator 19.1.0, SVG Export Plug-In  -->
<svg version="1.1"
	 xmlns="http://www.w3.org/2000/svg" xmlns:xlink="http://www.w3.org/1999/xlink" xmlns:a="http://ns.adobe.com/AdobeSVGViewerExtensions/3.0/"
	 x="0px" y="0px" width="92.11px" height="17.872px" viewBox="0 0 92.11 17.872" style="enable-background:new 0 0 92.11 17.872;"
	 xml:space="preserve">
<style type="text/css">
	.st0{font-family:'SourceSansPro-Light';}
	.st1{font-size:16px;}
</style>
<defs>
</defs>
<g>
	<path d="M0.816,7.966c0-3.33,1.809-5.426,4.354-5.426c2.529,0,4.338,2.097,4.338,5.426c0,3.345-1.809,5.506-4.338,5.506
		C2.625,13.472,0.816,11.311,0.816,7.966z M8.74,7.966c0-2.914-1.441-4.754-3.57-4.754c-2.145,0-3.585,1.84-3.585,4.754
		c0,2.929,1.441,4.834,3.585,4.834C7.299,12.8,8.74,10.895,8.74,7.966z"/>
	<path d="M11.776,2.731h0.736V9.15c0,2.801,1.329,3.65,2.817,3.65c1.521,0,2.865-0.849,2.865-3.65V2.731h0.705V9.23
		c0,3.297-1.761,4.242-3.569,4.242c-1.825,0-3.554-0.944-3.554-4.242V2.731z"/>
	<path d="M27.683,13.28l-2.849-4.85h-2.241v4.85h-0.736V2.731h3.009c2.097,0,3.474,0.769,3.474,2.785
		c0,1.681-1.057,2.641-2.705,2.865l2.897,4.898H27.683z M24.673,7.822c1.873,0,2.897-0.752,2.897-2.305
		c0-1.584-1.024-2.161-2.897-2.161h-2.081v4.466H24.673z"/>
	<path d="M33.888,2.731h2.881c2.353,0,3.746,0.769,3.746,2.945c0,2.065-1.409,3.073-3.746,3.073h-2.145v4.53h-0.736V2.731z
		 M36.578,8.125c2.161,0,3.185-0.72,3.185-2.449c0-1.777-1.041-2.321-3.185-2.321h-1.953v4.77H36.578z"/>
	<path d="M48.53,13.28l-2.849-4.85H43.44v4.85h-0.736V2.731h3.009c2.097,0,3.474,0.769,3.474,2.785c0,1.681-1.057,2.641-2.705,2.865
		l2.897,4.898H48.53z M45.521,7.822c1.873,0,2.897-0.752,2.897-2.305c0-1.584-1.024-2.161-2.897-2.161H43.44v4.466H45.521z"/>
	<path d="M50.864,7.966c0-3.33,1.809-5.426,4.354-5.426c2.529,0,4.338,2.097,4.338,5.426c0,3.345-1.809,5.506-4.338,5.506
		C52.672,13.472,50.864,11.311,50.864,7.966z M58.787,7.966c0-2.914-1.441-4.754-3.57-4.754c-2.145,0-3.585,1.84-3.585,4.754
		c0,2.929,1.441,4.834,3.585,4.834C57.346,12.8,58.787,10.895,58.787,7.966z"/>
	<path d="M61.023,11.551c0.528,0.896,1.152,1.249,2.033,1.249c1.281,0,1.905-0.752,1.905-2.465V2.731h0.736v7.683
		c0,1.697-0.72,3.057-2.625,3.057c-1.185,0-2.065-0.56-2.609-1.552L61.023,11.551z"/>
	<path d="M68.656,2.731h5.762v0.64h-5.026v3.986h4.226v0.64h-4.226v4.642h5.186v0.64h-5.922V2.731z"/>
	<path d="M80.593,2.54c1.232,0,2.177,0.608,2.737,1.264l-0.433,0.48c-0.576-0.64-1.344-1.072-2.305-1.072
		c-2.305,0-3.745,1.84-3.745,4.77s1.424,4.818,3.682,4.818c1.088,0,1.904-0.433,2.673-1.297l0.432,0.464
		c-0.8,0.928-1.761,1.504-3.137,1.504c-2.594,0-4.418-2.129-4.418-5.49C76.079,4.636,77.903,2.54,80.593,2.54z"/>
	<path d="M87.616,3.372h-3.361v-0.64h7.443v0.64h-3.346v9.908h-0.736V3.372z"/>
</g>
</svg>