<!-- Generator: Adobe Illustrator 19.1.0, SVG Export Plug-In  -->
<svg version="1.1"
	 xmlns="http://www.w3.org/2000/svg" xmlns:xlink="http://www.w3.org/1999/xlink" xmlns:a="http://ns.adobe.com/AdobeSVGViewerExtensions/3.0/"
	 x="0px" y="0px" width="39.728px" height="17.872px" viewBox="0 0 39.728 17.872"
	 style="enable-background:new 0 0 39.728 17.872;" xml:space="preserve">
<style type="text/css">
	.st0{font-family:'SourceSansPro-Light';}
	.st1{font-size:16px;}
</style>
<defs>
</defs>
<g>
	<path d="M1.504,2.731h0.736v4.626h5.634V2.731h0.736v10.548H7.875V7.998H2.241v5.282H1.504V2.731z"/>
	<path d="M10.928,7.966c0-3.33,1.809-5.426,4.354-5.426c2.529,0,4.338,2.097,4.338,5.426c0,3.345-1.809,5.506-4.338,5.506
		C12.737,13.472,10.928,11.311,10.928,7.966z M18.852,7.966c0-2.914-1.441-4.754-3.57-4.754c-2.145,0-3.585,1.84-3.585,4.754
		c0,2.929,1.441,4.834,3.585,4.834C17.411,12.8,18.852,10.895,18.852,7.966z"/>
	<path d="M21.936,2.731h1.024l2.209,6.194l0.833,2.337h0.064l0.816-2.337l2.193-6.194h1.041v10.548h-0.72v-6.93
		c0-0.864,0.048-1.969,0.096-2.849h-0.064l-0.816,2.321l-2.273,6.307h-0.64l-2.273-6.307L22.592,3.5h-0.064
		c0.032,0.88,0.08,1.985,0.08,2.849v6.93h-0.672V2.731z"/>
	<path d="M33.12,2.731h5.763v0.64h-5.026v3.986h4.226v0.64h-4.226v4.642h5.186v0.64H33.12V2.731z"/>
</g>
</svg>