<!-- Generator: Adobe Illustrator 19.1.0, SVG Export Plug-In  -->
<svg version="1.1"
	 xmlns="http://www.w3.org/2000/svg" xmlns:xlink="http://www.w3.org/1999/xlink" xmlns:a="http://ns.adobe.com/AdobeSVGViewerExtensions/3.0/"
	 x="0px" y="0px" width="479.735px" height="424.682px" viewBox="0 0 479.735 424.682"
	 style="enable-background:new 0 0 479.735 424.682;" xml:space="preserve">
<style type="text/css">
	.st0{fill:#FACB46;}
</style>
<defs>
</defs>
<path class="st0" d="M240.164,102.108c16.517,16.642,32.668,32.998,48.909,49.263c41.447,41.509,82.958,82.953,124.325,124.541
	c1.776,1.785,3.373,4.731,3.384,7.143c0.19,41.493,0.143,82.988,0.085,124.482c-0.017,11.836-5.192,17.085-17.048,17.095
	c-68.99,0.059-137.98,0.047-206.97,0.049c-37.495,0.001-74.989-0.016-112.484-0.025c-12.236-0.003-17.494-5.12-17.499-17.143
	c-0.017-41.328-0.051-82.656,0.106-123.984c0.009-2.348,1.022-5.323,2.636-6.942c57.045-57.26,114.217-114.392,171.376-171.538
	C237.797,104.237,238.673,103.484,240.164,102.108z M276.508,262.716c-12.68,12.694-24.747,24.773-36.54,36.578
	c-11.918-11.859-24.022-23.903-36.836-36.654c4.648-4.406,9.369-9.075,14.311-13.498c3.278-2.933,3.049-5.262-0.036-8.237
	c-7.435-7.168-14.746-14.474-21.889-21.932c-3.01-3.143-5.172-3.107-8.208,0.019c-9.635,9.918-19.535,19.578-29.255,29.415
	c-1.369,1.385-2.592,3.069-3.393,4.836c-5.353,11.818-10.482,23.739-15.901,35.526c-1.368,2.977-0.797,4.928,1.453,7.013
	c3.175,2.942,6.141,6.109,9.215,9.16c6.104,6.056,6.113,6.054,12.048,0.116c7.392-7.397,14.778-14.801,21.984-22.019
	c12.426,12.5,24.465,24.611,37.316,37.539c-2.469,2.141-5.373,4.376-7.951,6.938c-15.718,15.62-31.285,31.394-47.092,46.924
	c-3.445,3.385-3.539,5.777,0.07,8.932c3.63,3.173,7.101,6.587,10.252,10.232c3.265,3.778,5.666,3.168,8.925-0.135
	c16.85-17.079,33.877-33.984,50.851-50.941c1.267-1.266,2.603-2.464,4.879-4.609c1.112,1.64,1.855,3.208,3.008,4.368
	c16.923,17.007,33.896,33.963,50.867,50.922c4.479,4.476,4.836,4.476,9.183,0.188c3.321-3.276,6.629-6.566,9.921-9.872
	c4.452-4.47,4.474-4.849,0.152-9.177c-10.949-10.964-21.884-21.941-32.899-32.839c-7.307-7.23-14.741-14.331-21.657-21.043
	c12.749-12.829,24.786-24.942,37.305-37.54c7.846,7.986,15.936,16.117,23.891,24.378c2.652,2.754,4.844,2.909,7.512,0.055
	c3.639-3.893,7.38-7.709,11.311-11.303c2.643-2.416,2.918-4.667,1.43-7.887c-5.372-11.625-10.464-23.379-15.736-35.051
	c-0.669-1.482-1.575-2.965-2.71-4.112c-10.077-10.186-20.289-20.239-30.322-30.467c-2.794-2.848-4.863-2.515-7.484,0.176
	c-7.44,7.637-14.978,15.183-22.618,22.62c-2.824,2.749-2.656,4.938,0.121,7.511C266.972,253.467,271.826,258.23,276.508,262.716z"/>
<path class="st0" d="M238.676,77.231c-1.175,1.861-1.973,3.828-3.355,5.212c-60.878,60.969-121.803,121.889-182.733,182.805
	c-10.531,10.528-23.467,13.186-35.548,7.38c-17.67-8.492-22.592-31.033-10.043-46.076c1.065-1.277,2.249-2.458,3.426-3.636
	C82.418,150.912,154.416,78.91,226.421,6.915c9.196-9.195,17.678-9.222,26.832-0.067c72.112,72.118,144.205,144.255,216.333,216.357
	c9.039,9.036,12.517,19.527,8.486,31.88c-6.97,21.357-33.618,27.376-49.831,11.214c-39.539-39.412-78.983-78.918-118.461-118.39
	c-22.037-22.033-44.064-44.076-66.106-66.104C242.518,80.653,241.266,79.597,238.676,77.231z"/>
</svg>