<!-- Generator: Adobe Illustrator 19.1.0, SVG Export Plug-In  -->
<svg version="1.1"
	 xmlns="http://www.w3.org/2000/svg" xmlns:xlink="http://www.w3.org/1999/xlink" xmlns:a="http://ns.adobe.com/AdobeSVGViewerExtensions/3.0/"
	 x="0px" y="0px" width="512px" height="370.465px" viewBox="0 0 512 370.465" style="enable-background:new 0 0 512 370.465;"
	 xml:space="preserve">
<style type="text/css">
	.st0{fill:#FACB46;}
</style>
<defs>
</defs>
<path class="st0" d="M0,28.465c18.698,6.463,37.334,13.111,56.112,19.33c15.724,5.208,30.618,3.494,44.848-5.612
	c21.898-14.014,44.688-26.429,69.238-35.271c21.416-7.714,41.862-5.871,60.954,6.964c2.454,1.65,4.555,3.826,7.357,6.217
	c-2.016,1.192-3.517,2.093-5.03,2.972c-20.28,11.792-40.714,23.329-60.797,35.448c-17.157,10.353-26.022,25.85-25.727,46.072
	c0.388,26.534,24.047,49.901,50.527,48.92c7.879-0.292,15.959-3.257,23.372-6.368c16.249-6.818,32.132-14.51,48.161-21.849
	c16.636-7.617,28.581-5.421,41.638,7.627c31.35,31.328,62.707,62.649,94.066,93.968c9.482,9.47,10.002,23.586,1.183,32.7
	c-8.853,9.15-22.905,8.982-32.654-0.503c-10.627-10.34-21.092-20.848-31.816-31.085c-1.889-1.804-4.089-5.646-7.203-2.65
	c-0.791,0.761,0.991,5.474,2.707,7.352c9.661,10.573,19.654,20.843,29.551,31.199c10.965,11.473,9.609,28.374-2.933,36.312
	c-9.323,5.9-20.996,4.005-29.556-4.516c-12.631-12.574-25.364-25.047-38.164-37.449c-1.58-1.531-3.837-2.365-5.78-3.521
	c-0.525,0.556-1.05,1.111-1.575,1.667c2.031,3.023,3.714,6.367,6.156,9.011c9.265,10.033,18.702,19.911,28.219,29.706
	c6.326,6.511,8.854,14.067,6.473,22.832c-2.281,8.393-7.951,13.707-16.434,15.743c-8.341,2.002-15.43-0.533-21.399-6.49
	c-12.259-12.235-24.491-24.497-36.755-36.726c-0.819-0.816-1.719-1.719-2.757-2.097c-0.913-0.333-2.441-0.379-3.025,0.167
	c-0.635,0.593-1.003,2.302-0.597,3.025c1.208,2.154,2.663,4.243,4.36,6.037c8.585,9.075,17.419,17.918,25.889,27.098
	c6.708,7.27,7.635,17.548,2.883,25.963c-6.718,11.898-22.593,15.187-33.129,6.479c-4.722-3.903-8.773-8.635-12.961-13.146
	c-0.74-0.798-0.996-2.394-0.896-3.572c2.199-25.793-9.06-44.454-32.815-54.601c-1.538-0.657-3.09-2.466-3.635-4.077
	c-5.222-15.428-15.109-26.328-30.3-32.457c-1.555-0.627-3.105-2.449-3.707-4.07c-5.349-14.404-14.965-24.5-29.263-30.268
	c-1.69-0.682-3.406-2.614-4.058-4.36c-9.471-25.349-35.811-38.692-62.355-31.832c-18.92,4.89-32.183,15.991-39.651,34.04
	c-0.312,0.755-0.759,1.454-1.07,2.041c-9.359-2.832-18.506-5.6-27.653-8.368C0,147.132,0,87.799,0,28.465z"/>
<path class="st0" d="M512,200.465c-17.813,3.27-35.56,6.991-53.463,9.66c-12.947,1.93-23.984-2.727-33.401-12.101
	c-34.24-34.082-68.747-67.894-103.082-101.881c-10.169-10.066-22.135-12.381-34.834-6.883
	c-13.402,5.803-26.216,12.972-39.246,19.622c-12.591,6.426-25.078,13.059-37.709,19.406c-14.295,7.183-31.438,1.471-38.926-12.77
	c-7.293-13.867-2.221-31.205,11.525-38.957c41.009-23.127,82.013-46.264,123.119-69.216c5.026-2.806,10.491-5.248,16.058-6.574
	c11.751-2.8,21.655,2.416,30.35,9.48c16.542,13.44,32.805,27.234,48.918,41.188c6.528,5.653,13.114,11.411,21.958,11.697
	c7.009,0.227,14.177-1.134,21.112-2.573c21.812-4.525,43.549-9.415,65.309-14.188c0.799-0.175,1.542-0.6,2.312-0.909
	C512,97.132,512,148.799,512,200.465z"/>
<path class="st0" d="M167,370.465c-2.043-0.534-4.11-0.993-6.126-1.614c-12.544-3.858-18.257-14.956-14.013-27.466
	c1.417-4.177,3.249-8.213,4.97-12.512c-6.012,1.273-11.599,2.783-17.285,3.599c-17.855,2.563-27.94-14.955-21.627-27.471
	c1.526-3.025,2.175-6.492,3.454-10.46c-4.661,1.202-8.588,2.322-12.566,3.218c-7.791,1.754-14.903,0.884-20.49-5.607
	c-5.495-6.385-6.875-13.445-3.827-21.361c1.249-3.244,2.328-6.554,3.81-10.76c-4.241,1.173-7.799,2.286-11.419,3.137
	c-15.713,3.692-27.961-6.157-27.741-22.239c0.246-17.885,15.587-36.657,32.375-39.616c19.687-3.469,35.009,11.315,32.179,31.051
	c-0.162,1.128-0.361,2.251-0.636,3.956c10.161-1.493,19.534-0.482,27.011,6.97c7.512,7.486,7.934,16.815,6.322,27.268
	c10.497-0.845,20.542-0.3,27.902,8.338c7.291,8.557,7.933,18.299,4.639,28.979c4.235-0.349,8.174-1.221,12.007-0.884
	c10.827,0.952,18.889,6.327,22.921,16.635c4.337,11.087,1.976,21.383-5.262,30.437c-7.32,9.157-17.409,13.612-28.808,15.398
	c-1.61,0.252-3.195,0.665-4.792,1.004C169,370.465,168,370.465,167,370.465z"/>
</svg>