<!-- Generator: Adobe Illustrator 19.1.0, SVG Export Plug-In  -->
<svg version="1.1"
	 xmlns="http://www.w3.org/2000/svg" xmlns:xlink="http://www.w3.org/1999/xlink" xmlns:a="http://ns.adobe.com/AdobeSVGViewerExtensions/3.0/"
	 x="0px" y="0px" width="254.939px" height="294.378px" viewBox="0 0 254.939 294.378"
	 style="enable-background:new 0 0 254.939 294.378;" xml:space="preserve">
<style type="text/css">
	.st0{fill:#FACB46;}
</style>
<defs>
</defs>
<polygon class="st0" points="254.939,220.784 127.469,294.378 0,220.784 0,73.595 127.469,0 254.939,73.595 "/>
<path d="M147.299,65.296c2.819,0,5.639,0,8.458,0c0.068,0.024,0.134,0.066,0.203,0.07c2.041,0.105,4.082,0.211,6.124,0.305
	c2.089,0.097,2.853,0.88,2.843,2.969c-0.008,1.651-0.057,3.302-0.054,4.953c0.008,4.576,0.04,9.153,0.049,13.729
	c0.002,1.044,0.004,2.092-0.09,3.13c-0.079,0.876-0.588,1.335-1.468,1.486c-0.356,0.061-0.723,0.09-1.083,0.08
	c-1.408-0.038-2.814-0.115-4.222-0.144c-2.621-0.055-5.239,0.024-7.845,0.339c-1.889,0.228-3.516,0.984-4.781,2.435
	c-1.341,1.539-1.957,3.376-2.016,5.377c-0.074,2.544-0.068,5.091-0.05,7.637c0.01,1.444,0.612,2.093,2.025,2.331
	c0.297,0.05,0.603,0.061,0.905,0.061c4.623,0.004,9.246,0.003,13.869,0.002c1.166,0,2.334-0.044,3.499,0.004
	c1.421,0.059,2.187,0.901,2.179,2.314c-0.018,3.409-0.06,6.819-0.063,10.228c-0.002,2.56,0.047,5.121,0.062,7.681
	c0.009,1.6-0.82,2.473-2.422,2.571c-0.287,0.018-0.576,0.012-0.864,0.01c-0.849-0.007-1.697-0.026-2.546-0.025
	c-4.107,0.004-8.215,0.007-12.322,0.023c-0.923,0.004-1.848,0.029-2.768,0.102c-0.891,0.07-1.334,0.521-1.453,1.406
	c-0.06,0.449-0.093,0.904-0.093,1.357c-0.004,29.754-0.003,59.509-0.007,89.263c0,0.787-0.035,1.574-0.084,2.36
	c-0.068,1.092-0.526,1.552-1.605,1.65c-0.407,0.037-0.815,0.079-1.223,0.079c-9.746,0.004-19.492,0.005-29.239-0.001
	c-0.453,0-0.908-0.037-1.358-0.093c-0.795-0.099-1.185-0.435-1.299-1.222c-0.102-0.701-0.15-1.415-0.15-2.124
	c-0.007-29.83-0.005-59.66-0.011-89.49c0-0.589-0.038-1.181-0.116-1.765c-0.11-0.827-0.468-1.206-1.287-1.371
	c-0.457-0.092-0.931-0.138-1.397-0.14c-3.819-0.02-7.639-0.027-11.458-0.034c-0.833-0.002-1.667,0.041-2.499,0.013
	c-1.468-0.05-2.194-0.688-2.472-2.102c-0.011-0.054-0.053-0.101-0.081-0.152c0-0.879,0-1.758,0-2.638
	c0.024-0.098,0.07-0.195,0.07-0.293c0.011-3.762,0.02-7.525,0.021-11.287c0-0.354-0.059-0.708-0.091-1.062c0-1.061,0-2.122,0-3.183
	c0.032-0.083,0.077-0.163,0.095-0.249c0.209-1,0.804-1.621,1.818-1.767c0.564-0.081,1.142-0.09,1.713-0.09
	c4.243,0.002,8.486,0.027,12.729,0.018c1.453-0.003,2.337-0.805,2.467-2.254c0.108-1.204,0.141-2.417,0.164-3.627
	c0.07-3.709,0.134-7.417,0.57-11.108c0.395-3.346,1.074-6.625,2.279-9.78c1.57-4.111,3.939-7.657,7.397-10.43
	c3.272-2.624,7.025-4.258,11.058-5.264c5.559-1.387,11.235-1.929,16.943-2.195C146.65,65.374,146.975,65.328,147.299,65.296z"/>
</svg>