<!-- Generator: Adobe Illustrator 19.1.0, SVG Export Plug-In  -->
<svg version="1.1"
	 xmlns="http://www.w3.org/2000/svg" xmlns:xlink="http://www.w3.org/1999/xlink" xmlns:a="http://ns.adobe.com/AdobeSVGViewerExtensions/3.0/"
	 x="0px" y="0px" width="351.291px" height="405.636px" viewBox="0 0 351.291 405.636"
	 style="enable-background:new 0 0 351.291 405.636;" xml:space="preserve">
<style type="text/css">
	.st0{fill:#FACB46;}
	.st1{fill:#FFFFFF;}
</style>
<defs>
</defs>
<polygon class="st0" points="0,101.409 175.646,0 351.291,101.409 351.291,304.227 175.646,405.636 0,304.227 "/>
<path class="st1" d="M234.505,105.874c3.673,1.392,5.063,4.026,5.028,7.955c-0.129,14.763-0.051,29.528-0.05,44.292
	c0,0.615,0,1.23,0,2.065c-2.273,0-4.432,0-6.59,0c-1.502,0-3.011-0.084-4.505,0.024c-1.317,0.095-1.647-0.384-1.643-1.662
	c0.045-11.967,0.027-23.934,0.027-35.9c0-0.881-0.063-1.767,0.014-2.641c0.099-1.115-0.367-1.411-1.429-1.404
	c-6.061,0.04-12.122,0.019-18.183,0.019c-32.481,0-64.963,0-97.444,0c-2.173,0-2.173,0.001-2.173,2.174
	c0,54.913,0,109.825,0,164.738c0,0.66,0,1.32,0,2.189c0.737,0,1.287,0,1.838,0c28.544,0,57.088,0,85.633-0.001
	c2,0,2.03-0.039,2.029-2.127c-0.003-7.926,0.029-15.852-0.035-23.778c-0.011-1.395,0.322-1.846,1.791-1.834
	c8.703,0.071,17.406-0.002,26.109,0.07c1.527,0.013,1.888-0.453,1.88-1.927c-0.06-10.827-0.03-21.654-0.029-32.481
	c0-0.618,0-1.236,0-2.01c4.242,0,8.39,0,12.71,0c0,0.574,0,1.129,0,1.683c0,12.485-0.033,24.97,0.027,37.454
	c0.012,2.524-0.834,4.473-2.707,6.134c-8.166,7.242-16.295,14.525-24.432,21.799c-2.506,2.24-4.953,4.549-7.51,6.728
	c-1.318,1.124-2.819,2.033-4.237,3.039c-33.677,0-67.354,0-101.031,0c-3.726-1.515-4.838-4.33-4.833-8.251
	c0.08-59.055,0.055-118.11,0.057-177.165c0-1.088-0.139-2.207,0.071-3.255c0.238-1.186,0.543-2.52,1.282-3.401
	c0.886-1.057,2.26-1.704,3.423-2.529C144.562,105.874,189.533,105.874,234.505,105.874z"/>
<path class="st1" d="M151.811,217.701c0-17.048,0-33.974,0-51.179c0.633,0,1.226,0,1.819,0c33.985,0.001,67.97,0.009,101.955-0.026
	c1.335-0.001,1.761,0.302,1.757,1.711c-0.052,15.904-0.032,31.809-0.031,47.714c0,0.557,0,1.113,0,1.78
	C222.086,217.701,187.042,217.701,151.811,217.701z M194.819,176.147c0,10.854,0,21.54,0,32.238
	c4.995,0.501,9.85,0.702,14.674-0.276c4.96-1.006,8.932-3.41,11.279-8.097c1.757-3.509,2.014-7.2,1.659-11.036
	c-0.602-6.496-5.313-11.651-11.767-12.836C205.393,175.171,200.146,175.601,194.819,176.147z M167.571,208.466
	c1.63,0,3.172-0.048,4.71,0.017c0.979,0.042,1.253-0.363,1.242-1.273c-0.035-2.795-0.012-5.59-0.012-8.385c0-0.852,0-1.704,0-2.563
	c3.479,0.136,6.657,0.112,9.691-1.272c4.613-2.105,6.782-5.907,6.144-11.001c-0.521-4.162-3.772-7.363-8.397-8.098
	c-4.437-0.705-8.864-0.276-13.378,0.272C167.571,186.938,167.571,197.623,167.571,208.466z M233.871,194.444
	c4.163,0,8.064,0,11.935,0c0.6-4.754,0.6-4.754-3.802-4.751c-0.311,0-0.621,0-0.932,0c-2.365,0-4.73,0-7.09,0
	c0-3.11,0-5.987,0-8.985c0.659,0,1.22,0,1.781,0c3.261,0,6.524,0.032,9.783-0.039c0.45-0.01,1.233-0.495,1.271-0.827
	c0.149-1.307,0.061-2.64,0.061-3.964c-6.433,0-12.627,0-18.913,0c0,10.873,0,21.655,0,32.523c1.988,0,3.874,0,5.906,0
	C233.871,203.795,233.871,199.263,233.871,194.444z"/>
<path class="st1" d="M200.651,192.182c-0.001-3.466,0.007-6.933-0.007-10.399c-0.003-0.725,0.026-1.3,0.986-1.395
	c3.879-0.386,7.654-0.334,10.955,2.176c1.864,1.416,2.965,3.332,3.324,5.583c0.682,4.283,0.574,8.468-2.293,12.1
	c-1.929,2.444-4.624,3.389-7.569,3.72c-1.38,0.155-2.789,0.027-4.184,0.071c-0.941,0.03-1.24-0.373-1.229-1.3
	C200.677,199.219,200.651,195.7,200.651,192.182z"/>
<path class="st1" d="M173.582,180.52c3.971-0.949,7.748-0.038,9.144,2.123c1.069,1.655,0.941,4.939-0.254,6.516
	c-1.642,2.167-5.705,3.131-8.891,2.067C173.582,187.693,173.582,184.136,173.582,180.52z"/>
</svg>