<?xml version="1.0" encoding="utf-8"?>
<!-- Generator: Adobe Illustrator 19.1.0, SVG Export Plug-In . SVG Version: 6.00 Build 0)  -->
<svg version="1.1" id="Laag_1" xmlns="http://www.w3.org/2000/svg" xmlns:xlink="http://www.w3.org/1999/xlink" x="0px" y="0px"
	 viewBox="0 0 595.3 841.9" style="enable-background:new 0 0 595.3 841.9;" xml:space="preserve">
<style type="text/css">
	.st0{fill:#FACB46;stroke:#EEEDED;stroke-width:8;stroke-miterlimit:10;}
	.st1{fill:#EEEDED;stroke:#FBCB47;stroke-width:8;stroke-miterlimit:10;}
	.st2{fill:#EEEDED;}
	.st3{fill:none;}
	.st4{font-family:'SourceSansPro-Bold';}
	.st5{font-size:50px;}
	.st6{fill:#FACB46;stroke:#FBCB47;stroke-width:3;stroke-miterlimit:10;}
	.st7{fill:#FACB46;}
	.st8{fill:#25262B;}
	.st9{fill:#AA1921;stroke:#FBCB47;stroke-width:3;stroke-miterlimit:10;}
	.st10{fill:#FBCB47;stroke:#FBCB47;stroke-width:3;stroke-miterlimit:10;}
	.st11{fill:#EEEEED;}
	.st12{fill:#A1CA70;stroke:#FBCB47;stroke-width:3;stroke-miterlimit:10;}
	.st13{fill:#FACA47;stroke:#EEEDED;stroke-width:8;stroke-miterlimit:10;}
	.st14{fill:#EEEDED;stroke:#FACA47;stroke-width:8;stroke-miterlimit:10;}
	.st15{fill:#FACA47;stroke:#FACA47;stroke-width:3;stroke-miterlimit:10;}
	.st16{fill:#FACA47;}
	.st17{fill:#FACB47;}
	.st18{fill:#FBCB47;}
	.st19{fill:#FACB46;stroke:#FBCB47;stroke-miterlimit:10;}
	.st20{font-size:10px;}
	.st21{fill:#25262B;stroke:#25262A;stroke-width:8;stroke-miterlimit:10;}
	.st22{fill:#EEEDED;stroke:#25262A;stroke-width:8;stroke-miterlimit:10;}
	.st23{fill:#FACA47;stroke:#25262A;stroke-width:3;stroke-miterlimit:10;}
	.st24{fill:#25262B;stroke:#25262A;stroke-width:3;stroke-miterlimit:10;}
	.st25{fill:#25262A;}
	.st26{fill:none;stroke:#24252E;stroke-width:3;stroke-miterlimit:10;}
</style>
<polygon class="st0" points="30.2,290.8 293.3,138.9 556.5,290.8 556.5,594.6 293.3,746.5 30.2,594.6 "/>
<path class="st2" d="M161.3,502.1c0-3.7,0-7.3,0-11c0.9-4.9,2.8-9.9,2.3-14.7c-0.5-5.8,1.8-9.8,4.3-14.6c5.2-10,10.9-20.3,13-31.1
	c1.5-7.6,4.2-13.8,7.4-20.4c5-10.3,10.6-20.6,8.6-32.9c-0.3-2,1.9-4.8,3.5-6.7c9.3-11.1,15-23.4,14.3-38.3c-0.1-1.7,0.3-3.7,1.1-5.2
	c4.6-8.5,9.4-16.9,14.2-25.3c3.3-5.7,7.8-9.2,14.8-8.5c3.7,0.4,7.6,0,11.3,0c41.3,0,82.5-0.1,123.8,0.1c9.9,0,18.1,7.3,19.2,17
	c0.6,5.1-0.2,10.6-1.6,15.5c-8.9,30.3-18.2,60.5-27.4,90.7c-6.5,21.1-13.1,42.2-19.8,63.2c-3.6,11.2-11.9,15.9-23.1,16.1
	c-2.2,0-4.5,0-6.7,0c-44.3,0-88.6,0-132.9,0c-8.3,0-11.3,5-6.4,11.7c2.4,3.3,6.7,5.8,10.6,7.4c3.4,1.4,7.6,1.4,11.4,1.4
	c47.8,0.1,95.5,0.1,143.3,0c10.6,0,15.2-3.5,18.2-13.4c6-19.8,12-39.5,17.9-59.3c10.2-33.6,20.3-67.3,30.5-100.8
	c5.7,2.2,6.6,3.3,11.6,12.7c0,3.7,0,7.3,0,11c-0.4,0.9-0.9,1.8-1.2,2.7c-14.4,47.5-28.7,95-43.2,142.5
	c-4.7,15.4-17.2,24.5-33.1,24.6c-48,0-95.9,0-143.9,0.1c-8.5,0-15.9-2.7-22.8-7.2C170.6,522.7,165,513.1,161.3,502.1z M310.9,333.7
	c-13.8,0-27.6,0-41.4,0c-12,0-12,0-15.8,11.3c-2.7,8.2-2,9.3,6.5,9.3c28,0,56,0,84.1,0c13.2,0,13.3-0.1,17.2-12.9
	c2-6.5,1.3-7.6-5.5-7.6C340.9,333.7,325.9,333.7,310.9,333.7z M291,394.7c15.2,0,30.4-0.1,45.6,0.1c5.3,0.1,8.4-2.3,9.9-7.1
	c0.7-2.3,1.6-4.6,2.2-6.9c1.2-4.2,0-6.6-4.8-6.6c-31,0.1-62.1,0.1-93.1,0c-4.5,0-7.2,2.2-8.6,6.2c-0.8,2.3-1.6,4.6-2.3,6.9
	c-1.7,5.9-0.7,7.4,5.4,7.4C260.5,394.8,275.7,394.7,291,394.7z"/>
<rect x="30.2" y="572.7" class="st3" width="526.2" height="40.9"/>
<text transform="matrix(1 0 0 1 154.9199 607.7483)" class="st2 st4 st5">GUESTBOOK</text>
<rect x="250.6" y="677.6" class="st3" width="85.5" height="22.7"/>
<text transform="matrix(1 0 0 1 278.4583 684.6108)"><tspan x="0" y="0" class="st11 st4 st20">Design</tspan><tspan x="-14.8" y="10" class="st11 st4 st20">Development</tspan></text>
<g>
	<path class="st11" d="M277.5,711.6c0.1-0.2,0.1-0.3,0.2-0.5c0.3-0.5,0.8-0.7,1.3-0.8c2.8-0.5,5.4-1.6,7.9-3
		c1.6-0.9,3.2-1.9,4.6-2.9c0.1-0.1,0.1-0.1,0.2-0.2c-0.6-0.8-1.3-1.5-1.9-2.3c3.1-0.5,6.1-1,9.2-1.5c-1.1,2.9-2.2,5.8-3.3,8.7
		c-0.6-0.8-1.2-1.5-1.9-2.3c-0.2,0.1-0.4,0.3-0.6,0.4c-2.6,1.8-5.3,3.5-8.2,4.7c-1.9,0.8-3.8,1.4-5.7,1.7c-0.9,0.2-1.7-0.3-1.9-1.2
		c0,0,0-0.1-0.1-0.1C277.5,712.1,277.5,711.9,277.5,711.6z"/>
	<path class="st11" d="M300.5,727c-0.3-0.2-0.6-0.3-0.9-0.6c-0.3-0.3-0.4-0.6-0.4-1c0-5,0-10.1,0-15.1c0-0.9,0.7-1.6,1.6-1.6
		c0.6,0,1.1,0,1.7,0c0.8,0,1.4,0.4,1.6,1.2c0,0,0,0.1,0.1,0.1c0,5.2,0,10.5,0,15.7c-0.1,0.2-0.2,0.5-0.4,0.7
		c-0.3,0.2-0.6,0.4-0.9,0.6C302.1,727,301.3,727,300.5,727z"/>
	<path class="st11" d="M293.8,727c-0.3-0.2-0.6-0.3-0.9-0.6c-0.3-0.3-0.4-0.6-0.4-1c0-3.9,0-7.8,0-11.8c0-0.9,0.7-1.6,1.6-1.6
		c0.6,0,1.2,0,1.8,0c0.9,0,1.6,0.7,1.6,1.6c0,3.9,0,7.8,0,11.7c0,0.8-0.4,1.4-1.2,1.6c0,0-0.1,0-0.1,0.1
		C295.4,727,294.6,727,293.8,727z"/>
	<path class="st11" d="M287.2,727c-0.3-0.2-0.6-0.3-0.9-0.6c-0.3-0.3-0.4-0.6-0.4-1c0-2.8,0-5.6,0-8.4c0-0.9,0.7-1.6,1.6-1.6
		c0.6,0,1.2,0,1.8,0c0.9,0,1.6,0.7,1.6,1.6c0,2.8,0,5.6,0,8.3c0,0.8-0.4,1.4-1.2,1.6c0,0-0.1,0-0.1,0.1C288.7,727,288,727,287.2,727
		z"/>
	<path class="st11" d="M280.5,727c-0.3-0.2-0.6-0.3-0.9-0.6c-0.3-0.3-0.4-0.6-0.4-1c0-1.7,0-3.4,0-5.1c0-0.9,0.7-1.6,1.6-1.6
		c0.6,0,1.2,0,1.8,0c0.9,0,1.6,0.7,1.6,1.6c0,1.7,0,3.3,0,5c0,0.8-0.4,1.4-1.2,1.6c0,0-0.1,0-0.1,0.1C282.1,727,281.3,727,280.5,727
		z"/>
	<path class="st11" d="M302.9,727c0.3-0.2,0.6-0.3,0.9-0.6c0.2-0.2,0.3-0.5,0.4-0.7c0,0.4,0,0.9,0,1.3
		C303.7,727,303.3,727,302.9,727z"/>
</g>
</svg>
