<?xml version="1.0" encoding="utf-8"?>
<!-- Generator: Adobe Illustrator 19.1.0, SVG Export Plug-In . SVG Version: 6.00 Build 0)  -->
<svg version="1.1" id="Laag_1" xmlns="http://www.w3.org/2000/svg" xmlns:xlink="http://www.w3.org/1999/xlink" x="0px" y="0px"
	 viewBox="0 0 595.3 841.9" style="enable-background:new 0 0 595.3 841.9;" xml:space="preserve">
<style type="text/css">
	.st0{fill:#EEEEED;}
	.st1{fill:#FACB46;}
	.st2{fill:none;}
	.st3{fill:#25262B;}
	.st4{font-family:'SourceSansPro-Light';}
	.st5{font-size:12px;}
</style>
<polygon class="st0" points="34.4,268.9 297.7,116.9 561,268.9 561,573 297.7,725 34.4,573 "/>
<g>
	<path class="st1" d="M327,541.3c3.9,1.3,7.8,2.3,11.4,3.9c4.6,2,7.7,7.7,6.4,12.5c-0.8,2.9-2.6,5.7-4.7,7.9
		c-6.4,6.7-14.6,10-23.5,11.4c-7.1,1.1-14.2,1-20.8-2.2c-4.9-2.3-8.9-5.9-10.9-11.3c-1.8-5.1,0.1-9.1,3.3-12.9
		c2.3-2.8,5.1-4.9,9-5.9c-1.5-1.7-2.7-3.2-4.1-4.5c-4.1-3.9-5.6-9-6.8-14.3c-0.6-2.5,0.7-4.9,2.3-6.7c3.1-3.5,7.2-5.1,11.9-4.8
		c2,0.1,3.9,1.4,6.5,4.3c0.4-1,0.6-2,1.1-2.8c2.6-4.7,6.7-6.7,11.9-7.2c5.4-0.4,8.6,1.6,11.8,7.4c2.4,4.4,2.5,8.8,0.6,13.3
		c-1.4,3.4-3,6.7-4.6,10.1C327.6,540.2,327.3,540.9,327,541.3z M330.3,569.2c4.6-2.3,8.1-5.6,10.8-9.9c0.6-0.9,1-2.1,1-3.2
		c0.1-4.9-3.9-8.5-7.7-9.4c-4.1-1-8.3-2-12.4-2.9c-3.8-0.9-4.7-0.3-5.4,3.7c0,0.2-0.1,0.4-0.1,0.5c-1.4,7.7,0.1,14.8,4.7,21.1
		c1.9,2.7,3.1,2.9,5.8,1c-2.5-3-3.4-6.4-2.7-10.2c0.2-1.1,0.6-2.3,2.1-2c1.2,0.3,1.4,1.3,1.1,2.5
		C326.6,563.9,327.6,566.8,330.3,569.2z M315.3,540.5c2.4,0,4.8-0.2,7.2,0.1c1.5,0.2,2.2-0.4,2.9-1.5c2.4-3.6,4-7.6,5.4-11.7
		c1.1-3.4,0.9-6.5-0.7-9.6c-0.7-1.4-1.7-2.7-2.6-3.9c-1.5-1.8-3.3-3-5.8-2.9c-3.5,0.1-6.5,1-9.2,3.3c-3,2.5-3.6,6.4-1.6,9.7
		c1.1,1.8,2,3.7,2.5,5.7C314.1,533.1,314.6,536.6,315.3,540.5z M312.3,540.2c0,0,0.2-0.3,0.1-0.6c-0.1-0.7-0.2-1.4-0.3-2.2
		c-0.4-6-2.2-11.6-6.1-16.3c-1.9-2.3-3.7-5-7.3-4.6c-1.3,0.2-2.6,0.6-3.8,1.1c-5.3,2.2-7.4,5.4-5.7,11c1.6,5.3,4.6,9.6,8.4,13.5
		c1.2,1.2,2,1.5,3.7,1C304.9,542.1,308.5,541.3,312.3,540.2z M311.7,544c-1.3,0.2-2.6,0.2-3.7,0.4c-1.4,0.3-2.7,0.7-3.2,2.5
		c-0.4,1.8-1.3,3.4-1.8,5.1c-1.3,4.9-0.8,9.5,2.3,13.7c1,1.4,2,2.7,2.9,4.2c2.5,4.1,6.5,5.4,10.8,3.4
		C310.9,565,308.6,555.2,311.7,544z M304.3,574c-7.2-7.9-8.6-16.7-5.4-26.7c-4.8,1.8-8.8,4.3-10.8,9.1c-1,2.3-0.9,4.4,0,6.7
		c1.2,3.2,3.7,5.1,6.2,7C297.2,572.3,300.3,574,304.3,574z"/>
	<path class="st1" d="M221.4,597.1c0.3,0.7,0.9,1.3,0.9,2c0,1-0.6,2,0.7,2.6c-0.2,0.5-0.3,1.2-0.7,1.4c-1.4,0.7-1.9,1.9-2.2,3.3
		c-0.3,1.3-0.8,2.5-1.4,3.7c-0.2,0.3-0.9,0.4-1.4,0.6c-0.1-0.4-0.3-0.9-0.2-1.3c0.2-1.1,0.5-2.2,0.8-3.5c-1.1,0.4-2,0.8-2.9,1.1
		c-0.4,0.1-0.8-0.2-1.2-0.3c0.1-0.5,0.2-1,0.5-1.4c0.4-0.4,1-0.7,1.6-0.9c2.7-1.1,4.3-3.1,4.6-6c0-0.3,0.3-0.7,0.4-1
		C221,597.3,221.2,597.2,221.4,597.1z"/>
	<path class="st1" d="M222,592.5c-0.4-0.6-0.8-1.2-1.1-1.8c-1.1-2.5-2.1-5.1-3.3-7.6c-0.3-0.6-1-1-1.4-1.7c-0.2-0.4-0.2-1.1-0.2-1.6
		c0.5,0.1,1.2-0.1,1.4,0.2c1.1,1.4,2.4,2.8,3.1,4.4c0.9,2,1.5,4.1,2.1,6.2c0.2,0.5-0.1,1.2-0.1,1.8
		C222.4,592.4,222.2,592.4,222,592.5z"/>
	<path class="st1" d="M214.9,617c-0.8,1.7-1.4,3.3-2.2,4.9c-0.5,1.1-1.2,2.1-1.9,3.1c-0.3,0.4-0.9,0.5-1.4,0.8
		c-0.2-0.5-0.5-1-0.6-1.6c0-0.1,0.1-0.4,0.1-0.5c1.2-2.4,2.4-4.7,3.8-7.1c0.2-0.4,0.9-0.7,1.5-0.8
		C214.3,615.9,214.6,616.6,214.9,617z"/>
	<path class="st1" d="M167.7,647c0.6-0.1,1.2-0.3,1.8-0.4c2.6-0.5,5.2-1.1,7.8-1.6c0.6-0.1,1.4,0,2,0.2c0.3,0.1,0.5,0.7,0.5,1
		c-0.1,0.3-0.5,0.7-0.8,0.8c-2.9,0.5-5.7,1.1-8.6,1.5c-0.9,0.1-1.8-0.4-2.7-0.6C167.7,647.6,167.7,647.3,167.7,647z"/>
	<path class="st1" d="M264.5,556.4c-0.2,0.3-0.5,0.8-0.8,1.3c-0.3-0.4-0.9-0.8-1-1.2c-0.5-3.1-1.6-6-3.7-8.4
		c-0.2-0.2-0.4-0.4-0.4-0.6c-0.1-0.6,0-1.2,0-1.8c0.5,0.2,1.3,0.2,1.6,0.6c1.3,2.2,2.6,4.5,3.7,6.8
		C264.2,554,264.2,555.1,264.5,556.4z"/>
	<path class="st1" d="M197.6,636.5c2.4-2.1,4.9-4.2,7.4-6.2c0.3-0.3,1.1,0,1.6,0.1c0,0.5,0.1,1.4-0.2,1.6c-2.1,1.8-4.3,3.5-6.6,5.1
		c-0.5,0.3-1.3,0.2-1.9,0.2C197.8,637.1,197.7,636.8,197.6,636.5z"/>
	<path class="st1" d="M256.2,574.2c0.1-0.6,0-1.2,0.3-1.7c1.4-2.7,2.9-5.3,4.4-8c0.2-0.3,0.7-0.5,1.1-0.7c0.2,0.5,0.8,1,0.6,1.4
		c-1.3,3.4-2.8,6.8-5.6,9.3C256.7,574.4,256.5,574.3,256.2,574.2z"/>
	<path class="st1" d="M211.6,579.1c-3.9,0.3-7.9-0.5-11.3,2.2c-0.8-1.9-0.3-3,1.3-3.2c2.7-0.4,5.4-0.6,8.1-0.8c0.7,0,1.4,0.7,2.1,1
		C211.8,578.6,211.7,578.9,211.6,579.1z"/>
	<path class="st1" d="M246.2,587.3c0,0.1,0,0.3-0.1,0.3c-1.9,1.6-3.8,3.2-5.8,4.6c-0.3,0.2-1.2-0.1-1.8-0.2c0.3-0.5,0.5-1.2,0.9-1.6
		c1.4-1.3,2.8-2.5,4.2-3.7c0.4-0.3,1.1-0.5,1.6-0.5c0.5,0,0.9,0.4,1.4,0.6C246.5,586.9,246.3,587.1,246.2,587.3z"/>
	<path class="st1" d="M197.6,610.8c2.7-0.5,5.4-1.1,8.2-1.5c0.4-0.1,0.8,0.7,1.3,1c-0.3,0.3-0.5,0.9-0.9,1c-2.2,0.5-4.4,1-6.6,1.2
		c-0.7,0.1-1.4-0.5-2.2-0.9C197.4,611.4,197.5,611.1,197.6,610.8z"/>
	<path class="st1" d="M243.2,541.3c0.4-0.4,0.7-1,1.1-1.2c2.9-1.1,5.8-1.1,8.7,0.2c0.4,0.2,0.6,0.6,0.9,1c-0.4,0.2-0.8,0.5-1.2,0.5
		c-3,0-6-0.1-9-0.2C243.6,541.7,243.5,541.5,243.2,541.3z"/>
	<path class="st1" d="M188.3,588.7c0.6-1,1-2.1,1.6-2.9c0.9-1,2-2,3.1-2.8c0.4-0.3,1.1,0,1.7,0c-0.2,0.4-0.3,1-0.6,1.3
		c-1.3,1.7-2.7,3.3-4.1,5c-0.2,0.3-0.8,0.6-0.9,0.5C188.9,589.6,188.7,589.2,188.3,588.7z"/>
	<path class="st1" d="M254,578.4c-0.2,0.4-0.2,0.7-0.4,1c-1.1,1.3-2.1,2.7-3.2,3.9c-0.3,0.3-1.1,0.3-1.6,0.4c0-0.6-0.3-1.3,0-1.7
		c1-1.5,2.2-2.9,3.4-4.3c0.2-0.2,0.8-0.3,1.1-0.2C253.6,577.7,253.8,578.1,254,578.4z"/>
	<path class="st1" d="M184.4,643.4c2.2-1,4.3-2.1,6.5-3c0.3-0.1,1,0.3,1.3,0.7c0.2,0.2-0.1,1.1-0.4,1.2c-2,0.8-3.9,1.5-6,2.2
		c-0.4,0.1-0.9-0.2-1.3-0.3C184.5,643.8,184.4,643.6,184.4,643.4z"/>
	<path class="st1" d="M266.1,565.6c-0.5-0.4-1-0.8-1.5-1.2c0.5-0.4,0.9-1.1,1.5-1.3c1.1-0.4,2.2-0.7,3.3-0.8
		c0.5-0.1,1.1,0.4,1.6,0.6c-0.3,0.5-0.4,1.2-0.8,1.3C269,564.8,267.6,565.1,266.1,565.6z"/>
	<path class="st1" d="M235.1,595.1c-0.4,0.7-0.5,1-0.7,1.2c-1.4,0.9-2.8,1.9-4.3,2.7c-0.3,0.2-0.9-0.2-1.4-0.3
		c0.1-0.4,0.1-1,0.4-1.3c1.2-0.9,2.5-1.9,3.9-2.6C233.5,594.5,234.3,595,235.1,595.1z"/>
	<path class="st1" d="M252.2,565.1c-1.2,1.4-5.1,2.1-6.3,1.3c-0.3-0.2-0.6-0.7-0.6-1c0-0.3,0.5-0.8,0.7-0.8c1.6-0.2,3.1-0.3,4.7-0.3
		C251.2,564.3,251.7,564.8,252.2,565.1z"/>
	<path class="st1" d="M189.3,605.6c0.5,0.4,1.1,0.8,1.6,1.2c1.2,1.2,2.5,2.5,3.7,3.7c0.2,0.3,0.5,0.8,0.4,1c-0.1,0.3-0.8,0.5-1,0.4
		c-0.7-0.3-1.5-0.8-2-1.4c-1.2-1.4-2.2-2.9-3.2-4.4C188.9,606,189.1,605.8,189.3,605.6z"/>
	<path class="st1" d="M283.2,559.8c0.1,0.1,0.5,0.2,0.6,0.5c0.1,0.3,0,0.8-0.2,0.9c-1.7,0.7-3.4,1.4-5.1,2.1
		c-0.1,0.1-0.7-0.4-0.7-0.6c0.1-0.6,0.3-1.6,0.7-1.7C279.8,560.5,281.4,560.2,283.2,559.8z"/>
	<path class="st1" d="M187.5,601.9c-1.9-1.7-1.7-6.7,0.6-9.2C187.9,596.1,187.7,598.9,187.5,601.9z"/>
	<path class="st1" d="M233.8,551.4c-0.4,1.8-0.8,3.4-1.2,4.9c-0.1,0.3-0.6,0.5-0.9,0.7c-0.2-0.4-0.5-0.7-0.5-1
		c0.3-1.6,0.7-3.2,1.2-4.7c0.1-0.3,0.6-0.5,0.9-0.7C233.4,550.8,233.6,551.1,233.8,551.4z"/>
	<path class="st1" d="M234.7,547.2c-0.3-2.3,0.8-3.6,2.3-4.6c0.6-0.4,1.4-0.5,2.2-0.7c0,0.1,0.1,0.3,0.1,0.4
		C237.8,543.8,236.4,545.4,234.7,547.2z"/>
	<path class="st1" d="M232.5,559.5c1,1.2,1.8,2,2.5,3c0.2,0.2,0.3,0.7,0.1,1c-0.1,0.3-0.6,0.5-0.9,0.5
		C233.3,564,231.9,561.2,232.5,559.5z"/>
	<path class="st1" d="M337,555.2c-1.2,0.7-1.9,1.5-2.4,1.4c-0.7-0.2-1.4-1-1.6-1.7c-0.1-0.4,1-1.5,1.5-1.4
		C335.2,553.5,335.9,554.3,337,555.2z"/>
</g>
<rect x="138.6" y="367" class="st2" width="322.2" height="95.1"/>
<text transform="matrix(1 0 0 1 138.6265 375.606)"><tspan x="0" y="0" class="st3 st4 st5">This toolkit will help you facilitate co-creation workshops with the </tspan><tspan x="0" y="14" class="st3 st4 st5">focus on designing new museum experiences together with your </tspan><tspan x="0" y="28" class="st3 st4 st5">visitors. Co-creating new exhibitions with visitors will provide your </tspan><tspan x="0" y="42" class="st3 st4 st5">organization with priceless insights in their wants and needs and </tspan><tspan x="0" y="56" class="st3 st4 st5">improves the overall quality of your museum experience and </tspan><tspan x="0" y="70" class="st3 st4 st5">community engagement. This toolkit provides everything you </tspan><tspan x="0" y="84" class="st3 st4 st5">need to set up your first co-creation workshop!</tspan></text>
<path class="st1" d="M487.7,611c0.7,1,1.2,2.2,1.4,3.5c0.4-0.3,0.8-0.6,1.3-0.8c-0.3-1.2-0.8-2.4-1.4-3.6c-0.4-0.7,0-2.5,0.6-3
	c2.8-2.2,4-4.9,3.8-8.5c0-1.1,1.4-2.3,2.2-3.5v-2.7c-2.3-5-3-10.4-2.8-15.8c0.2-4.2-1.7-7.8-3.2-11.5c-0.4-0.9-1.4-1.6-2.2-2.2
	c-4.6-2.9-9.7-4.1-15-4.3c-13.4-0.5-26.8-0.8-40.3-1c-9.2-0.2-18.5,0.1-27.7-0.2c-14-0.6-27.9,0.4-41.8,1.7
	c-6.7,0.6-12.9,2.9-17.8,7.9c-2.8,2.9-3.2,4.9-1.4,8.6c2,4.3,2.7,8.7,2.1,13.4c-0.6,4.7-1.3,9.3-2.1,14c-0.5,3.2-1.1,6.4-1.7,9.6
	v6.4c1.1,2,2.3,3.9,3.2,5.9c0.4,0.8,0.3,1.7,0.4,2.6c0.2,1.9,0,3.9,0.5,5.7c0.5,1.7,0.4,3.2-0.3,4.8c-2.2,4.5-1.3,8.8,1.4,12.8
	c0.7,1,2.1,1.7,3.1,2.5c-4.2,7.3-5.9,13.8,4.5,19c-2.7,5.9,0.5,10.6,4,14.6c0.7,0.9,1.6,1.5,2.3,2.3c0.7-0.5,1.6-0.9,2.5-1.1
	c0.6-0.5,1.4-0.9,2.3-1.2c1.2-1.4,2.4-2.9,3.6-4.3c-0.2-0.2-0.4-0.3-0.5-0.5c-1.2,1.2-2.4,2.5-3.6,3.7c-1.9,1.9-2.7,2-4.9,0
	c1.6-1.7,3.2-3.5,4.8-5.2c-0.1-0.2-0.3-0.3-0.4-0.5c-1.9,1.4-3.9,2.9-6,4.4c-1.9-3.3,2.3-3.5,2.6-5.7c-1.8-0.1-3,3.4-5.2,1.2
	c1.1-1.3,2.1-2.4,3.1-3.6c-0.1-0.2-0.2-0.3-0.3-0.5c-0.9,0.5-1.8,1-3.4,1.9c0.3-1.7,0.4-3,0.9-4c0.2-0.4,1.2-0.8,1.8-0.7
	c2.9,0.5,5.7,1.2,8.6,1.6c5.5,0.7,11.1,1.1,16.6,1.3c0.4-0.3,0.8-0.5,1.3-0.7c0.5-0.3,1-0.6,1.6-0.8c-7.9-0.2-15.7-0.8-23.5-2.1
	c-2.2-0.4-4.2-1.2-6.7-2c2-1.9,3.6-3.4,5.2-4.9c-3.3,0-4.7,4.2-8.9,3.2c2-2.3,3.7-4.2,5.5-6.2c-3,0.2-4.3,3-6.7,4.2
	c-0.5-0.4-1-0.9-1.5-1.4c2-1.8,3.8-3.4,5.7-5.1c-0.1-0.2-0.3-0.4-0.4-0.5c-1.9,1.2-3.7,2.4-5.9,3.8c-1-4.2,3.9-3.6,4.4-6.7
	c-1.2,0.6-2.2,1.1-3.3,1.5c0.8-3.2,2-3.6,5.1-2.9c5.5,1.2,11,2.8,16.6,2.8c15,0,30-0.5,45.1-1.1c0.1,0,0.2,0,0.2,0
	c0.3-0.4,0.6-0.8,0.9-1.2c0.2-0.2,0.4-0.4,0.6-0.6c-11,0.5-22,0.9-33,1.2c-7.5,0.2-15.1-0.3-22.6-1c-3.2-0.3-6.4-1.7-10.2-2.8
	c2.1-1.8,3.5-3,4.9-4.2c-0.2-0.2-0.3-0.5-0.5-0.7c-1.2,0.8-2.4,1.5-3.6,2.4c-1.5,1.1-2.9,1.7-4.4-0.4c1.5-1.4,3.1-2.8,4.6-4.2
	c-0.1-0.1-0.2-0.3-0.2-0.4c-1.8,1-3.7,2-5.5,3c-1.5-1.9-1.5-1.9,4.1-7.2c-1.8,0.9-3.6,1.8-5.6,2.8c-1.1-3.2,3-3,3.2-5.5
	c-0.9,0.3-1.5,0.5-2.2,0.8c0.7-2.7,1.4-2.8,3.6-2.1c2.7,0.8,5.6,1.6,8.4,1.7c6.7,0.2,13.4,0,20.1,0c5.7,0,11.5,0.3,17.2,0
	c11.8-0.6,23.6-1.4,35.4-2.1c2.9-0.2,5.7-0.2,8.6-0.2c0.5,0,1.5,0.3,1.6,0.7c0.5,1.8,1.7,2.6,3.1,3.2c0.2-0.2,0.5-0.3,0.7-0.4
	c0.5-0.5,1-0.9,1.6-1.2c-3.9-1-4.8-2.8-3.7-7.7c0.6-2.7,1.4-5.3,1.8-8c0.4-2.7-0.9-4.9-2.6-6.9c-0.6-0.7-2-1-3.1-1.2
	c-2.7-0.5-3.6-1.1-3.1-3.8c1.2-5.7-3-7.9-6.6-10c-3.1-1.8-6.3,0-9,2.2c-2.7,2.2-2.8,5.3-3.1,8.3c-0.3,2.2,0.3,4.6,0.2,6.8
	c-0.1,2.3,0,4.8-0.7,7c-1.5,4.6-6.2,5.1-9.6,4.1c-0.8-0.3-1.7-1.9-1.7-2.9c0-5,0-10.1,0.5-15c0.6-5.2,0.2-10.3-0.8-15.4
	c-0.4-2.1-2.3-3.8-4.5-4c-3.5-0.5-4.5,0.1-6.1,2.5c-1.1,1.7-2.3,3.4-3.8,4.8c-0.7,0.7-2.4,1-3.3,0.6c-0.8-0.3-1.1-1.8-1.5-2.8
	c-0.2-0.5,0-1.2,0-1.8c0.1-3.4-0.9-4.6-4.4-5.1c-2.7-0.4-4.4,0.7-5.2,3.6c-0.4,1.5-0.4,3.2-1.1,4.7c-0.7,1.4-1.7,2.9-2.9,3.8
	c-1.5,1.1-2.9,0.2-3.3-1.6c-0.1-0.4-0.1-0.8-0.1-1.1c-0.3-2-0.5-4-3.3-4.1c-2.5,0-4.7,1.4-5.3,3.8c-1.3,5.4-2.3,10.9-3.7,16.2
	c-0.8,3-1.6,6-4.8,7.6c-5.1,2.4-9.2-0.1-9-5.7c0.2-3.9,0.8-7.7,1.2-11.6c0.7-6.7,1.5-13.5,2.1-20.2c0.3-3.8-0.1-7.5-2.1-11.1
	c-1.6-2.8,0.4-6.9,3.7-8.3c-0.5,3.2,0.9,6.6,3.7,7.8c2.9,1.2,6.1,2.5,9.1,2.5c25.5,0.5,51,0.9,76.5,1c10.3,0,20.6-1,30.7-3.1
	c5.4-1.1,10.6-3,14.6-7.1c0.9-0.9,1.6-2,2.5-3.1c3.3,2.1,4.6,5.6,5.1,9.4c0.4,3.2,0.4,6.4,0.8,9.6c0.3,2.2,1,4.4,1.5,6.7
	c0.3,1.3,0.6,2.5,0.5,3.8c0,0.8-0.6,1.8-1.2,2.2c-0.3,0.2-1.6-0.4-2-1c-1.3-1.9-2.9-1.9-4.8-1.2c-2.6,0.9-3.5,2.3-3.3,5
	c0.1,1.4,0.3,2.7,0.4,4.1c0.3,4.3-2,7-6.3,7.4c-0.8,0.1-1.5,0.1-2.3,0c-2.8-0.1-3.2-0.5-3.5-3.3c-0.3-2-0.4-4.1-0.9-6.1
	c-0.9-3.2-3.1-4.3-6.3-3.5c-2.9,0.7-5.1,2-6.1,5.1c-1.1,3.2-2.7,6.3-3.8,9.6c-1.4,4.1-1.2,8.1,1.2,12.1c1.4,2.4,2.1,5.4,2.4,8.2
	c0,0.3,0,0.6,0,1c0,0,0,0,0,0c0.4-0.4,0.9-0.7,1.5-0.9c-0.4-2.1-0.8-4-1.3-5.9c-0.5-1.7-1-3.4-1.9-4.8c-1.4-2.1-1.6-4.2-0.7-6.6
	c3.8-0.3,7.7-0.3,11.5-1c4.8-0.8,9.6-2,14.4-3.1c1.5-0.3,3.1-0.9,4.6-1C486.2,609.8,487.2,610.4,487.7,611z M421.5,605.6
	c1.4-3.3,7.2-4,9.9-1.5c0.4,0.4,0.8,0.9,1.3,1.2c2.1,1.4,2.7,3.2,2.1,5.7c-0.2,0.9,0,1.9,0,3.5c-4.5,0.2-9,0.5-13.5,0.6
	c-0.4,0-1.3-1-1.2-1.4C420.4,610.9,420.5,608,421.5,605.6z M362.8,610.7c1.1-1.3,2.1-2.7,3.6-4.6c-2.1,1.2-3.6,2.1-5.1,3
	c-0.2-0.2-0.3-0.4-0.5-0.6l4.3-4.8c-0.1-0.2-0.3-0.4-0.4-0.5c-0.8,0.4-1.7,0.8-2.5,1.1c-0.2-0.2-0.3-0.3-0.5-0.5
	c1-0.8,2-1.6,3.3-2.7c-1-0.3-1.6-0.6-2.6-0.9c0.7-0.9,1.1-1.7,1.8-2.3c1.5-1.2,3.1-0.5,3.6,1.3c0.4,1.6,0.6,3.5,1.7,4.5
	c2.6,2.5,6.2,1.3,7.8-2.4c0.9-2.1,1.3-4.4,1.7-6.6c0.4-2.1,1.6-2.7,3.5-2.6c1.7,0,2.6,0.7,2.7,2.4c0.1,1.2,0,2.4,0,3.7
	c0,2,1,3.3,2.7,4.1c1.6,0.7,3,0.2,4.1-1.1c1.6-1.8,3.2-3.6,4.4-5.6c1.7-2.9,5.1-3.4,6.9-0.6c0.9,1.5,1.5,3.4,1.6,5.1
	c0.4,4.7,0.9,9.4-0.5,14.1c-0.3,1.2-0.8,1.5-2,1.5c-9.3,0.1-18.6,0.2-27.9,0.3c-4.1,0-8.2-0.2-12.2-0.4c-0.1-0.2-0.1-0.4-0.2-0.6
	c1.4-1.2,2.7-2.4,4.1-3.6c-0.1-0.2-0.3-0.4-0.4-0.6c-2,1.2-3.9,2.5-6.3,3.9C359.4,612.1,361.8,611.9,362.8,610.7z M350.9,627.1
	c3.2-2.3,6.7-4.3,7.8-8.6c0.1-0.4,0.9-0.8,1.4-0.9c0.8-0.2,1.7-0.3,2.5-0.3c13.6,1,27.1,0,40.6-0.7c0.1,0,0.3,0.1,0.7,0.1
	c0,2.4-0.1,4.7,0,6.9c0.1,1.6,0.5,3.2,1.1,4.6c0.9,2.2,2.4,3.6,5.2,3.4c2.5-0.2,4.9,0,6.5-2.3c2-2.7,3.9-5.4,3.6-9.1
	c-0.1-1.3,0-2.7,0-4.1c3.9,0,7.5,0,11.1,0c2.3,0,4.7,0,7,0.3c3.9,0.5,5.5,2.6,4.9,6.5c-0.6,3.6-1.6,7.1-2.5,11
	c-28.5,2.5-57.2,4.1-86.7,2.2c1.1-1,1.8-1.6,2.5-2.2c0.7-0.7,1.5-1.3,2.4-2.1c-3.2-0.1-4.7,3.8-8.3,3c2-1.8,3.7-3.2,5.3-4.7
	c-0.1-0.1-0.2-0.3-0.3-0.4c-1.9,1.1-3.8,2.2-5.7,3.2c-0.5,0.3-1.3,0-1.9,0c0.2-0.6,0.3-1.5,0.8-1.9c1.9-1.5,3.9-2.9,5.8-4.3
	l-0.4-0.7c-2.1,1.3-4.3,2.5-6.4,3.8c-0.1-0.1-0.2-0.3-0.3-0.4C348.7,628.7,349.8,627.9,350.9,627.1z M480.7,568
	c-3.8,1.4-7.5,3.3-11.4,4.1c-7.2,1.4-14.5,2.7-21.9,3.2c-25.5,1.6-51.1,0.4-76.6-0.1c-5.3-0.1-10.9,0.1-16-2.1
	c-1.7-0.7-3.3-1.6-3.5-3.9c5.5-2.4,11.3-3.8,17.2-4.3c10.9-0.8,21.9-1.6,32.9-1.7c18.5-0.3,37.1,0,55.6-0.3
	c7.2-0.1,14.3,0.5,21.2,2.4c0.9,0.3,1.7,1.1,2.6,1.6C480.7,567.3,480.7,567.7,480.7,568z M482,566.2c-2.7-3.7-6.7-4-10.7-4.5
	c-11.7-1.2-23.3-0.6-35-0.4c-9.7,0.2-19.4-0.1-29.1-0.1c-4,0-7.9,0.2-11.9,0.4c-10.2,0.6-20.4,1-30.6,1.9c-4,0.4-7.8,1.9-11.7,3
	c-0.7,0.2-1.4,0.5-2.3,0.8c0.2-2.4,1.3-3.6,3.1-4c5.1-1,10.3-2.4,15.4-2.8c9-0.7,18.1-1,27.2-1.2c15-0.2,30-0.3,45.1,0
	c11.2,0.2,22.4,0.8,33.6,1.4c2.2,0.1,4.4,1.4,6.6,2.3C483.4,563.7,483.4,564.9,482,566.2z M455.1,613.3c1.1-3.4,2-6.4,3.2-9.2
	c0.7-1.5,1.7-3.1,3-4.1c3-2.3,6.7-0.7,7.3,3.1c0.4,2.7,0.6,5.4,0.9,8.7C464.8,612.3,460,612.8,455.1,613.3z M484.2,608.3
	c0-2.1,0.1-3.9,0-5.8c-0.1-2.5-0.7-5.1,1.7-7c1.3-1.1,2.5-1.2,3.2,0.6c0.1,0.3,0.2,0.6,0.4,0.8c1.7,1.5,3,3.6,1.7,5.6
	c-1.3,2.1-3.6,3.6-5.5,5.2C485.3,608.2,484.6,608.2,484.2,608.3z"/>
<g>
	<path class="st1" d="M457.7,509.4c-2.4-2.8-4.9-5.5-7.3-8.4c-3.1-3.8-4.3-8-3.3-13c1.4-6.4,3.9-9.3,9.2-10.4
		c5.1-1.1,9.7-0.3,13.5,3.5c0.7,0.7,1.2,1.6,1.8,2.4c1.7-3.5,3.2-5.3,5-6c4.4-1.6,8.8-1.3,12.8,1.2c2.1,1.3,4,3.1,4.2,5.7
		c0.3,5.3,0.4,10.7-2.4,15.6c-1,1.7-1.7,3.5-2.7,5.5c4-0.1,7.3,1.1,10.3,3.1c4.1,2.7,7.1,6.1,6.8,11.4c-0.3,5.7-3.1,10.3-7.2,13.9
		c-5.4,4.9-12.2,7-19.3,8c-9,1.2-17.8,0.5-25.8-4.1c-2.6-1.5-5.2-3.7-6.7-6.2c-2.6-4.2-1.2-10.6,2.6-13.8c3-2.5,6.4-4.6,9.8-7
		C458.7,510.5,458.2,510,457.7,509.4z M464.2,529.3c-0.6-1.1-0.8-2.1,0.3-2.7c1.3-0.8,2,0.2,2.5,1.3c1.8,3.4,1.9,7,0.4,10.5
		c3.1,1,4.3,0.5,5.3-2.6c2.5-7.4,1.9-14.6-1.6-21.6c-0.1-0.2-0.2-0.3-0.3-0.5c-1.8-3.6-2.7-3.9-6.2-2c-3.7,2.1-7.4,4.2-11.1,6.3
		c-3.4,2-6.3,6.6-4.7,11.2c0.3,1,1.1,2.1,1.9,2.8c3.7,3.4,8.1,5.5,13.1,6.4C465.8,535.4,465.9,532.4,464.2,529.3z M468.9,495.7
		c-0.1-2,0.2-4.1,0.8-6.1c1-3.8-0.7-7.3-4.3-8.9c-3.2-1.4-6.4-1.4-9.8-0.5c-2.4,0.7-3.8,2.3-4.7,4.4c-0.6,1.5-1.1,3-1.4,4.5
		c-0.6,3.4,0.1,6.5,2.1,9.4c2.5,3.6,5.2,6.9,8.5,9.7c1,0.9,1.8,1.2,3.2,0.6c2.2-0.9,4.5-1.4,6.8-2.1
		C469.6,502.8,469.1,499.3,468.9,495.7z M484.2,505.3c1.7,0,2.5-0.5,3.2-2c2.5-4.8,4.1-9.8,4.2-15.3c0-5.8-2.8-8.4-8.6-9
		c-1.3-0.1-2.7-0.2-4,0c-3.6,0.6-4.6,3.7-5.7,6.5c-2.4,5.6-2.5,11.5-1.2,17.4c0.2,0.7,0.2,1.4,0.3,2.2c0.1,0.3,0.3,0.5,0.3,0.6
		C476.8,505.5,480.5,505.2,484.2,505.3z M475.9,539.2c4.7,0.7,8.2-1.7,9.4-6.3c0.4-1.6,1-3.2,1.6-4.8c1.7-4.9,0.9-9.5-1.7-13.8
		c-1-1.5-2.3-2.8-3.2-4.4c-0.9-1.6-2.3-1.6-3.7-1.5c-1.2,0.1-2.4,0.4-3.7,0.6C480.7,518.9,481.3,528.9,475.9,539.2z M498.7,529.1
		c1.9-2.5,3.7-5.1,4-8.5c0.2-2.5-0.4-4.6-1.9-6.4c-3.3-4-7.8-5.2-13-5.6c5.9,8.6,7.1,17.5,2.5,27.1
		C494,534.5,496.5,531.9,498.7,529.1z"/>
	<path class="st1" d="M523.3,507.4c0.3,0.3,0.7,0.6,1.2,1c0.2-0.5,0.6-1,0.6-1.5c-0.4-3.1-0.1-6.2,1.2-9.1c0.1-0.2,0.2-0.5,0.2-0.7
		c-0.1-0.6-0.3-1.1-0.5-1.7c-0.5,0.3-1.2,0.6-1.3,1c-0.6,2.5-1.2,5-1.6,7.6C522.9,505.1,523.2,506.1,523.3,507.4z"/>
	<path class="st1" d="M536.3,522.1c-0.2-0.5-0.4-1.2-0.7-1.6c-2.1-2.2-4.3-4.3-6.5-6.4c-0.3-0.3-0.8-0.3-1.2-0.4
		c-0.1,0.5-0.4,1.2-0.2,1.5c2.2,2.9,4.6,5.7,8.1,7.3C535.9,522.4,536.1,522.3,536.3,522.1z"/>
	<path class="st1" d="M549.7,531.7c0.1,0.1,0.1,0.2,0.2,0.3c2.3,0.9,4.5,1.9,6.9,2.8c0.4,0.1,1.1-0.5,1.6-0.7
		c-0.4-0.4-0.8-1-1.3-1.2c-1.7-0.8-3.4-1.6-5.1-2.3c-0.5-0.2-1.2-0.2-1.7,0c-0.4,0.1-0.8,0.6-1.1,0.9
		C549.3,531.5,549.5,531.6,549.7,531.7z"/>
	<path class="st1" d="M539.4,486.8c-0.5-0.3-0.9-0.7-1.4-0.8c-3.1-0.2-5.9,0.6-8.3,2.6c-0.3,0.3-0.4,0.8-0.6,1.2
		c0.4,0.1,0.9,0.3,1.3,0.2c2.9-0.9,5.7-1.8,8.6-2.7C539.1,487.3,539.1,487.2,539.4,486.8z"/>
	<path class="st1" d="M539.6,525.5c0.3,0.3,0.4,0.6,0.6,0.8c1.4,1,2.8,2,4.2,2.8c0.4,0.2,1.1,0,1.7-0.1c-0.1-0.6-0.1-1.3-0.5-1.6
		c-1.4-1.1-2.9-2.2-4.5-3.1c-0.3-0.2-0.8-0.1-1.1,0.1C539.8,524.7,539.8,525.1,539.6,525.5z"/>
	<path class="st1" d="M524.4,516.7c0.4-0.6,0.7-1.1,1.1-1.6c-0.6-0.3-1.2-0.8-1.8-0.8c-1.1-0.1-2.3,0-3.4,0.2
		c-0.5,0.1-0.9,0.7-1.4,1c0.4,0.4,0.7,1,1.1,1C521.4,516.7,522.8,516.6,524.4,516.7z"/>
	<path class="st1" d="M537.6,512.2c1.6,1,5.5,0.6,6.4-0.6c0.2-0.3,0.4-0.8,0.3-1.1c-0.1-0.3-0.7-0.6-1-0.6c-1.5,0.3-3.1,0.6-4.6,1.1
		C538.3,511.1,538,511.8,537.6,512.2z"/>
	<path class="st1" d="M506.4,516c-0.1,0.1-0.4,0.3-0.4,0.6c0,0.3,0.3,0.8,0.5,0.8c1.8,0.2,3.7,0.4,5.5,0.5c0.2,0,0.6-0.6,0.5-0.8
		c-0.3-0.5-0.7-1.4-1.1-1.4C509.7,515.7,508.2,515.9,506.4,516z"/>
	<path class="st1" d="M551.3,493.8c0.9,1.6,1.7,3,2.6,4.4c0.2,0.3,0.7,0.3,1.1,0.4c0.1-0.4,0.3-0.9,0.1-1.1
		c-0.8-1.4-1.6-2.8-2.5-4.2c-0.2-0.3-0.7-0.3-1-0.4C551.4,493.2,551.3,493.5,551.3,493.8z"/>
	<path class="st1" d="M549.2,490c-0.4-2.3-1.8-3.2-3.5-3.7c-0.7-0.2-1.5-0.1-2.3-0.1c0,0.1,0,0.3,0,0.4
		C545.3,487.7,547.1,488.8,549.2,490z"/>
	<path class="st1" d="M554.8,501.2c-0.6,1.4-1.2,2.5-1.6,3.6c-0.1,0.3,0,0.8,0.1,1c0.2,0.2,0.7,0.3,1,0.3
		C555.3,505.7,555.9,502.7,554.8,501.2z"/>
	<path class="st1" d="M453.5,527c1.3,0.3,2.3,0.9,2.7,0.6c0.6-0.4,1.1-1.4,1-2.1c0-0.4-1.4-1.1-1.9-0.9
		C454.7,524.8,454.3,525.8,453.5,527z"/>
</g>
</svg>
