<?xml version="1.0" encoding="utf-8"?>
<!-- Generator: Adobe Illustrator 16.0.4, SVG Export Plug-In . SVG Version: 6.00 Build 0)  -->
<!DOCTYPE svg PUBLIC "-//W3C//DTD SVG 1.1//EN" "http://www.w3.org/Graphics/SVG/1.1/DTD/svg11.dtd">
<svg version="1.1" id="Layer_1" xmlns="http://www.w3.org/2000/svg" xmlns:xlink="http://www.w3.org/1999/xlink" x="0px" y="0px"
	 width="2264.457px" height="1601.144px" viewBox="0 0 2264.457 1601.144" enable-background="new 0 0 2264.457 1601.144"
	 xml:space="preserve">
<polygon fill="#EEECEC" stroke="#F7C651" stroke-width="12" stroke-miterlimit="10" points="1815.85,1182.035 1155.139,1563.496 
	494.425,1182.035 494.425,419.112 1155.139,37.648 1815.85,419.112 "/>
<g>
	<rect x="953.946" y="1305.907" fill="none" width="376.876" height="75.81"/>
	<text transform="matrix(1 0 0 1 1020.6914 1328.9141)" font-family="'SourceSansPro-Light'" font-size="32">Create a Mind map</text>
</g>
<g>
	<rect x="1529.074" y="691.515" fill="none" width="274.482" height="37.729"/>
	<text transform="matrix(1 0 0 1 1534.1738 714.5244)" font-family="'SourceSansPro-Light'" font-size="32">Make a pro-cons list.</text>
</g>
<g>
	<rect x="464.73" y="694.987" fill="none" width="274.482" height="37.729"/>
	<text transform="matrix(1 0 0 1 523.1416 717.9971)" font-family="'SourceSansPro-Light'" font-size="32">Wildest idea</text>
</g>
<g>
	<rect x="987.691" y="169.947" fill="none" width="279.906" height="48.253"/>
	<text transform="matrix(1 0 0 1 1003.0723 192.9546)" font-family="'SourceSansPro-Light'" font-size="32">Make an idea bank.</text>
</g>
<rect x="988.531" y="1338.338" fill="none" width="345.365" height="169"/>
<text transform="matrix(1 0 0 1 988.5312 1353.4365)"><tspan x="0" y="0" font-family="'SourceSansPro-Light'" font-size="21">A mind map works like the branch of a </tspan><tspan x="0" y="25.2" font-family="'SourceSansPro-Light'" font-size="21">tree.Create ideas and then sub ideas </tspan><tspan x="0" y="50.4" font-family="'SourceSansPro-Light'" font-size="21">that are associated with the main idea </tspan><tspan x="0" y="75.601" font-family="'SourceSansPro-Light'" font-size="21">branch off from the central idea.</tspan></text>
<rect x="1491.172" y="732.178" fill="none" width="318.555" height="241.487"/>
<text transform="matrix(1 0 0 1 1491.1719 747.2778)"><tspan x="0" y="0" font-family="'SourceSansPro-Light'" font-size="21">Write down what you are trying to </tspan><tspan x="0" y="25.2" font-family="'SourceSansPro-Light'" font-size="21">choose between. Then, list the pros </tspan><tspan x="0" y="50.4" font-family="'SourceSansPro-Light'" font-size="21">and cons to tally up a total. The </tspan><tspan x="0" y="75.601" font-family="'SourceSansPro-Light'" font-size="21">option with the most pros is the route </tspan><tspan x="0" y="100.8" font-family="'SourceSansPro-Light'" font-size="21">to go. You have to be careful to not </tspan><tspan x="0" y="126" font-family="'SourceSansPro-Light'" font-size="21">cheat, though, and purposefully </tspan><tspan x="0" y="151.201" font-family="'SourceSansPro-Light'" font-size="21">stack the list the way you want it to </tspan><tspan x="0" y="176.4" font-family="'SourceSansPro-Light'" font-size="21">go.</tspan></text>
<rect x="509.125" y="738.145" fill="none" width="286.127" height="241.487"/>
<text transform="matrix(1 0 0 1 509.1245 753.2446)"><tspan x="0" y="0" font-family="'SourceSansPro-Light'" font-size="21">In this brainstorm, only </tspan><tspan x="0" y="25.2" font-family="'SourceSansPro-Light'" font-size="21">outrageous and unrealistic ideas </tspan><tspan x="0" y="50.4" font-family="'SourceSansPro-Light'" font-size="21">are allowed. After, ask the group </tspan><tspan x="0" y="75.601" font-family="'SourceSansPro-Light'" font-size="21">to look at the ideas and see if </tspan><tspan x="0" y="100.8" font-family="'SourceSansPro-Light'" font-size="21">they can be modified into </tspan><tspan x="0" y="126" font-family="'SourceSansPro-Light'" font-size="21">realistic ones. Open up the </tspan><tspan x="0" y="151.201" font-family="'SourceSansPro-Light'" font-size="21">brainstorming to all ideas again.</tspan></text>
<rect x="989.383" y="204.073" fill="none" width="310.609" height="241.487"/>
<text transform="matrix(1 0 0 1 989.3828 219.1709)"><tspan x="0" y="0" font-family="'SourceSansPro-Light'" font-size="21">Write down all the ideas that come </tspan><tspan x="0" y="25.2" font-family="'SourceSansPro-Light'" font-size="21">to your mind, it doesn’y matter if its </tspan><tspan x="0" y="50.4" font-family="'SourceSansPro-Light'" font-size="21">good, bad or even to unreal. Every </tspan><tspan x="0" y="75.601" font-family="'SourceSansPro-Light'" font-size="21">idea is a good idea.</tspan></text>
<g>
	<g>
		<g>
			<g>
				<rect x="586.933" y="653.663" fill="#F7C651" width="8.887" height="19.729"/>
				<rect x="586.933" y="624.282" fill="#F7C651" width="8.887" height="19.729"/>
				<rect x="586.933" y="594.904" fill="#F7C651" width="8.887" height="19.729"/>
				<rect x="586.933" y="565.521" fill="#F7C651" width="8.887" height="19.724"/>
				<rect x="586.933" y="536.141" fill="#F7C651" width="8.887" height="19.729"/>
				<rect x="586.933" y="506.756" fill="#F7C651" width="8.887" height="19.726"/>
				<rect x="586.933" y="477.382" fill="#F7C651" width="8.887" height="19.724"/>
			</g>
		</g>
	</g>
</g>
<g>
	<g>
		<g>
			<g>
				
					<rect x="1689.022" y="664.511" transform="matrix(1 -0.0036 0.0036 1 -2.3998 6.0524)" fill="#F7C651" width="8.887" height="20.88"/>
				
					<rect x="1688.911" y="633.416" transform="matrix(1 -0.0036 0.0036 1 -2.2887 6.0518)" fill="#F7C651" width="8.887" height="20.88"/>
				
					<rect x="1688.8" y="602.324" transform="matrix(1 -0.0036 0.0036 1 -2.1777 6.0511)" fill="#F7C651" width="8.887" height="20.88"/>
				
					<rect x="1688.689" y="571.227" transform="matrix(1 -0.0036 0.0036 1 -2.0669 6.0513)" fill="#F7C651" width="8.886" height="20.875"/>
				
					<rect x="1688.578" y="540.132" transform="matrix(1 -0.0036 0.0036 1 -1.9556 6.05)" fill="#F7C651" width="8.887" height="20.88"/>
				
					<rect x="1688.467" y="509.033" transform="matrix(1 -0.0036 0.0036 1 -1.8445 6.0494)" fill="#F7C651" width="8.887" height="20.877"/>
				
					<rect x="1688.356" y="477.945" transform="matrix(1 -0.0036 0.0036 1 -1.7335 6.0488)" fill="#F7C651" width="8.887" height="20.875"/>
			</g>
		</g>
	</g>
</g>
<g>
	<g>
		<g>
			<g>
				<rect x="1688.147" y="1107.197" fill="#F7C651" width="8.887" height="20.146"/>
				<rect x="1688.147" y="1077.195" fill="#F7C651" width="8.887" height="20.146"/>
				<rect x="1688.147" y="1047.195" fill="#F7C651" width="8.887" height="20.146"/>
				<rect x="1688.147" y="1017.19" fill="#F7C651" width="8.887" height="20.142"/>
				<rect x="1688.147" y="987.188" fill="#F7C651" width="8.887" height="20.146"/>
				<rect x="1688.147" y="957.182" fill="#F7C651" width="8.887" height="20.144"/>
				<rect x="1688.147" y="927.187" fill="#F7C651" width="8.887" height="20.141"/>
			</g>
		</g>
	</g>
</g>
<g>
	<g>
		<g>
			<g>
				<rect x="586.933" y="1124.566" fill="#F7C651" width="8.887" height="21.819"/>
				<rect x="586.933" y="1092.072" fill="#F7C651" width="8.887" height="21.819"/>
				<rect x="586.933" y="1059.581" fill="#F7C651" width="8.887" height="21.818"/>
				<rect x="586.933" y="1027.084" fill="#F7C651" width="8.887" height="21.814"/>
				<rect x="586.933" y="994.59" fill="#F7C651" width="8.887" height="21.819"/>
				<rect x="586.933" y="962.091" fill="#F7C651" width="8.887" height="21.817"/>
				<rect x="586.933" y="929.604" fill="#F7C651" width="8.887" height="21.813"/>
			</g>
		</g>
	</g>
</g>
<g>
	<g>
		<g>
			<g>
				<g>
					
						<rect x="596.401" y="442.549" transform="matrix(0.4896 0.8719 -0.8719 0.4896 702.0618 -292.451)" fill="#F7C651" width="8.887" height="21.86"/>
					
						<rect x="624.787" y="426.61" transform="matrix(0.4896 0.8719 -0.8719 0.4896 702.6517 -325.3369)" fill="#F7C651" width="8.887" height="21.86"/>
					
						<rect x="653.171" y="410.672" transform="matrix(0.4896 0.872 -0.872 0.4896 703.2787 -358.2179)" fill="#F7C651" width="8.886" height="21.86"/>
					
						<rect x="681.561" y="394.733" transform="matrix(0.4896 0.872 -0.872 0.4896 703.8693 -391.1101)" fill="#F7C651" width="8.886" height="21.855"/>
					
						<rect x="709.945" y="378.793" transform="matrix(0.4896 0.8719 -0.8719 0.4896 704.4427 -423.9946)" fill="#F7C651" width="8.887" height="21.86"/>
					
						<rect x="738.336" y="362.852" transform="matrix(0.4896 0.872 -0.872 0.4896 705.0729 -456.889)" fill="#F7C651" width="8.887" height="21.858"/>
					
						<rect x="766.718" y="346.917" transform="matrix(0.4896 0.8719 -0.8719 0.4896 705.6005 -489.7662)" fill="#F7C651" width="8.887" height="21.855"/>
				</g>
			</g>
			<g>
				<g>
					
						<rect x="795.108" y="330.973" transform="matrix(0.4896 0.8719 -0.8719 0.4896 706.1903 -522.6567)" fill="#F7C651" width="8.887" height="21.86"/>
					
						<rect x="823.494" y="315.033" transform="matrix(0.4896 0.8719 -0.8719 0.4896 706.7798 -555.5428)" fill="#F7C651" width="8.887" height="21.86"/>
					
						<rect x="851.878" y="299.095" transform="matrix(0.4896 0.8719 -0.8719 0.4896 707.3694 -588.426)" fill="#F7C651" width="8.887" height="21.86"/>
					
						<rect x="880.268" y="283.156" transform="matrix(0.4896 0.872 -0.872 0.4896 708.028 -621.3298)" fill="#F7C651" width="8.887" height="21.855"/>
					
						<rect x="908.652" y="267.216" transform="matrix(0.4896 0.872 -0.872 0.4896 708.5936 -654.2097)" fill="#F7C651" width="8.886" height="21.86"/>
					
						<rect x="937.044" y="251.275" transform="matrix(0.4896 0.872 -0.872 0.4896 709.1846 -687.1031)" fill="#F7C651" width="8.886" height="21.858"/>
					
						<rect x="965.425" y="235.34" transform="matrix(0.4896 0.8719 -0.8719 0.4896 709.7087 -719.9667)" fill="#F7C651" width="8.887" height="21.855"/>
				</g>
			</g>
		</g>
	</g>
</g>
<g>
	<g>
		<g>
			<g>
				<g>
					
						<rect x="1348.864" y="1329.207" transform="matrix(0.5139 0.8579 -0.8579 0.5139 1806.4773 -510.074)" fill="#F7C651" width="8.886" height="19.432"/>
					
						<rect x="1373.688" y="1314.335" transform="matrix(0.514 0.8578 -0.8578 0.514 1805.6116 -538.6405)" fill="#F7C651" width="8.887" height="19.431"/>
					
						<rect x="1398.512" y="1299.464" transform="matrix(0.5139 0.8579 -0.8579 0.5139 1805.0968 -567.1243)" fill="#F7C651" width="8.886" height="19.432"/>
					
						<rect x="1423.34" y="1284.591" transform="matrix(0.514 0.8578 -0.8578 0.514 1804.228 -595.6899)" fill="#F7C651" width="8.887" height="19.427"/>
					
						<rect x="1448.164" y="1269.719" transform="matrix(0.514 0.8578 -0.8578 0.514 1803.5371 -624.2117)" fill="#F7C651" width="8.887" height="19.431"/>
					
						<rect x="1472.993" y="1254.844" transform="matrix(0.5139 0.8578 -0.8578 0.5139 1802.9536 -652.7223)" fill="#F7C651" width="8.887" height="19.43"/>
					
						<rect x="1497.814" y="1239.976" transform="matrix(0.5138 0.8579 -0.8579 0.5138 1802.4448 -681.2144)" fill="#F7C651" width="8.887" height="19.428"/>
				</g>
			</g>
			<g>
				<g>
					
						<rect x="1522.643" y="1225.099" transform="matrix(0.514 0.8578 -0.8578 0.514 1801.4618 -709.7874)" fill="#F7C651" width="8.887" height="19.432"/>
					
						<rect x="1547.468" y="1210.227" transform="matrix(0.514 0.8578 -0.8578 0.514 1800.7703 -738.3112)" fill="#F7C651" width="8.887" height="19.432"/>
					
						<rect x="1572.292" y="1195.357" transform="matrix(0.514 0.8578 -0.8578 0.514 1800.079 -766.8331)" fill="#F7C651" width="8.887" height="19.431"/>
					
						<rect x="1597.121" y="1180.484" transform="matrix(0.514 0.8578 -0.8578 0.514 1799.3871 -795.3611)" fill="#F7C651" width="8.887" height="19.427"/>
					
						<rect x="1621.944" y="1165.611" transform="matrix(0.5139 0.8579 -0.8579 0.5139 1798.8842 -823.8657)" fill="#F7C651" width="8.886" height="19.432"/>
					
						<rect x="1646.773" y="1150.737" transform="matrix(0.5138 0.8579 -0.8579 0.5138 1798.3076 -852.3893)" fill="#F7C651" width="8.887" height="19.43"/>
					
						<rect x="1671.594" y="1135.869" transform="matrix(0.5139 0.8578 -0.8578 0.5139 1797.427 -880.9233)" fill="#F7C651" width="8.887" height="19.428"/>
				</g>
			</g>
		</g>
	</g>
</g>
<g>
	<g>
		<g>
			<g>
				<g>
					
						<rect x="602.121" y="1143.82" transform="matrix(-0.4988 0.8667 -0.8667 -0.4988 1909.4885 1204.137)" fill="#F7C651" width="8.886" height="20.767"/>
					
						<rect x="628.928" y="1159.243" transform="matrix(-0.4987 0.8668 -0.8668 -0.4987 1963.0352 1203.9551)" fill="#F7C651" width="8.886" height="20.767"/>
					
						<rect x="655.733" y="1174.666" transform="matrix(-0.4987 0.8668 -0.8668 -0.4987 2016.5757 1203.8362)" fill="#F7C651" width="8.886" height="20.767"/>
					
						<rect x="682.543" y="1190.094" transform="matrix(-0.4988 0.8667 -0.8667 -0.4988 2070.1279 1203.783)" fill="#F7C651" width="8.886" height="20.763"/>
					
						<rect x="709.348" y="1205.514" transform="matrix(-0.4988 0.8667 -0.8667 -0.4988 2123.6694 1203.6644)" fill="#F7C651" width="8.886" height="20.767"/>
					
						<rect x="736.16" y="1220.943" transform="matrix(-0.4987 0.8668 -0.8668 -0.4987 2177.2222 1203.4003)" fill="#F7C651" width="8.887" height="20.765"/>
					
						<rect x="762.961" y="1236.364" transform="matrix(-0.4987 0.8668 -0.8668 -0.4987 2230.7576 1203.3486)" fill="#F7C651" width="8.887" height="20.763"/>
				</g>
			</g>
			<g>
				<g>
					
						<rect x="789.772" y="1251.789" transform="matrix(-0.4988 0.8667 -0.8667 -0.4988 2284.3135 1203.3108)" fill="#F7C651" width="8.886" height="20.767"/>
					
						<rect x="816.579" y="1267.212" transform="matrix(-0.4987 0.8668 -0.8668 -0.4987 2337.855 1203.12)" fill="#F7C651" width="8.886" height="20.767"/>
					
						<rect x="843.384" y="1282.635" transform="matrix(-0.4987 0.8668 -0.8668 -0.4987 2391.3955 1203.0011)" fill="#F7C651" width="8.886" height="20.767"/>
					
						<rect x="870.195" y="1298.063" transform="matrix(-0.4988 0.8667 -0.8667 -0.4988 2444.9531 1202.9568)" fill="#F7C651" width="8.886" height="20.763"/>
					
						<rect x="897" y="1313.483" transform="matrix(-0.4987 0.8668 -0.8668 -0.4987 2498.4885 1202.7625)" fill="#F7C651" width="8.886" height="20.767"/>
					
						<rect x="923.81" y="1328.912" transform="matrix(-0.4987 0.8668 -0.8668 -0.4987 2552.0352 1202.5554)" fill="#F7C651" width="8.887" height="20.765"/>
					
						<rect x="950.612" y="1344.333" transform="matrix(-0.4988 0.8667 -0.8667 -0.4988 2605.583 1202.5909)" fill="#F7C651" width="8.887" height="20.763"/>
				</g>
			</g>
		</g>
	</g>
</g>
<g>
	<g>
		<g>
			<g>
				<g>
					
						<rect x="1310.151" y="230.326" transform="matrix(-0.5033 0.8641 -0.8641 -0.5033 2184.53 -773.545)" fill="#F7C651" width="8.887" height="21.544"/>
					
						<rect x="1337.877" y="246.472" transform="matrix(-0.5033 0.8641 -0.8641 -0.5033 2240.1614 -773.2318)" fill="#F7C651" width="8.887" height="21.544"/>
					
						<rect x="1365.601" y="262.617" transform="matrix(-0.5032 0.8642 -0.8642 -0.5032 2295.6899 -773.0067)" fill="#F7C651" width="8.887" height="21.544"/>
					
						<rect x="1393.331" y="278.767" transform="matrix(-0.5032 0.8642 -0.8642 -0.5032 2351.3572 -772.6696)" fill="#F7C651" width="8.886" height="21.539"/>
					
						<rect x="1421.054" y="294.91" transform="matrix(-0.5032 0.8642 -0.8642 -0.5032 2406.9834 -772.3582)" fill="#F7C651" width="8.886" height="21.544"/>
					
						<rect x="1448.785" y="311.06" transform="matrix(-0.5033 0.8641 -0.8641 -0.5033 2462.728 -771.9509)" fill="#F7C651" width="8.887" height="21.542"/>
					
						<rect x="1476.506" y="327.205" transform="matrix(-0.5032 0.8642 -0.8642 -0.5032 2518.2446 -771.7354)" fill="#F7C651" width="8.886" height="21.539"/>
				</g>
			</g>
			<g>
				<g>
					
						<rect x="1504.235" y="343.351" transform="matrix(-0.5033 0.8641 -0.8641 -0.5033 2573.9587 -771.3519)" fill="#F7C651" width="8.887" height="21.544"/>
					
						<rect x="1531.961" y="359.497" transform="matrix(-0.5033 0.8641 -0.8641 -0.5033 2629.5898 -771.0386)" fill="#F7C651" width="8.887" height="21.544"/>
					
						<rect x="1559.685" y="375.642" transform="matrix(-0.5032 0.8642 -0.8642 -0.5032 2685.1082 -770.8322)" fill="#F7C651" width="8.887" height="21.544"/>
					
						<rect x="1587.415" y="391.792" transform="matrix(-0.5032 0.8642 -0.8642 -0.5032 2740.7783 -770.4894)" fill="#F7C651" width="8.886" height="21.539"/>
					
						<rect x="1615.138" y="407.935" transform="matrix(-0.5032 0.8642 -0.8642 -0.5032 2796.4045 -770.1782)" fill="#F7C651" width="8.886" height="21.544"/>
					
						<rect x="1642.869" y="424.085" transform="matrix(-0.5033 0.8641 -0.8641 -0.5033 2852.1599 -769.7524)" fill="#F7C651" width="8.887" height="21.542"/>
					
						<rect x="1670.59" y="440.23" transform="matrix(-0.5032 0.8642 -0.8642 -0.5032 2907.666 -769.5554)" fill="#F7C651" width="8.886" height="21.539"/>
				</g>
			</g>
		</g>
	</g>
</g>
<g>
	<polygon fill="none" stroke="#F7C651" stroke-width="3" stroke-miterlimit="10" points="1105.566,1217.691 1145.348,1194.722 
		1185.133,1217.691 1185.133,1263.626 1145.348,1286.595 1105.566,1263.626 	"/>
	<polygon fill="none" stroke="#F7C651" stroke-width="3" stroke-miterlimit="10" points="1228.76,1171.755 1268.539,1148.788 
		1308.326,1171.755 1308.326,1217.692 1268.539,1240.659 1228.76,1217.692 	"/>
	<polygon fill="none" stroke="#F7C651" stroke-width="3" stroke-miterlimit="10" points="1003.137,1171.755 1042.916,1148.788 
		1082.701,1171.755 1082.701,1217.692 1042.916,1240.659 1003.137,1217.692 	"/>
	<polygon fill="none" stroke="#F7C651" stroke-width="3" stroke-miterlimit="10" points="1117.697,1058.183 1157.479,1035.214 
		1197.262,1058.183 1197.262,1104.118 1157.479,1127.087 1117.697,1104.118 	"/>
	<polygon fill="none" stroke="#F7C651" stroke-width="3" stroke-miterlimit="10" points="939.262,1058.183 979.041,1035.214 
		1018.822,1058.183 1018.822,1104.118 979.041,1127.087 939.262,1104.118 	"/>
	<polygon fill="none" stroke="#F7C651" stroke-width="3" stroke-miterlimit="10" points="1294.285,1058.183 1334.066,1035.214 
		1373.848,1058.183 1373.848,1104.118 1334.066,1127.087 1294.285,1104.118 	"/>
	
		<line fill="none" stroke="#F7C651" stroke-width="3" stroke-miterlimit="10" x1="1019.599" y1="1162.249" x2="995.825" y2="1117.396"/>
	
		<line fill="none" stroke="#F7C651" stroke-width="3" stroke-miterlimit="10" x1="1117.697" y1="1210.687" x2="1082.701" y2="1194.722"/>
	
		<line fill="none" stroke="#F7C651" stroke-width="3" stroke-miterlimit="10" x1="1061.85" y1="1159.718" x2="1140.697" y2="1117.396"/>
	
		<line fill="none" stroke="#F7C651" stroke-width="3" stroke-miterlimit="10" x1="1185.133" y1="1217.691" x2="1228.76" y2="1194.722"/>
	
		<line fill="none" stroke="#F7C651" stroke-width="3" stroke-miterlimit="10" x1="1287.475" y1="1159.718" x2="1311.654" y2="1117.396"/>
	<g>
		<rect x="1098.627" y="1234.882" fill="none" width="93.442" height="18.969"/>
		<text transform="matrix(1 0 0 1 1116.375 1245.5273)" font-family="'SourceSansPro-Light'" font-size="14.8095">Main idea</text>
	</g>
	<g>
		<rect x="997.678" y="1179.937" fill="none" width="90.479" height="45.543"/>
		<text transform="matrix(1 0 0 1 1010.0859 1190.582)"><tspan x="0" y="0" font-family="'SourceSansPro-Light'" font-size="14.8095">supporting </tspan><tspan x="19.836" y="17.771" font-family="'SourceSansPro-Light'" font-size="14.8095">idea</tspan></text>
	</g>
	<g>
		<rect x="1223.301" y="1179.937" fill="none" width="90.479" height="45.543"/>
		<text transform="matrix(1 0 0 1 1235.709 1190.582)"><tspan x="0" y="0" font-family="'SourceSansPro-Light'" font-size="14.8095">supporting </tspan><tspan x="19.836" y="17.771" font-family="'SourceSansPro-Light'" font-size="14.8095">idea</tspan></text>
	</g>
	<g>
		<rect x="1288.828" y="1067.382" fill="none" width="90.477" height="45.543"/>
		<text transform="matrix(1 0 0 1 1301.2363 1078.0293)"><tspan x="0" y="0" font-family="'SourceSansPro-Light'" font-size="14.8095">supporting </tspan><tspan x="19.836" y="17.771" font-family="'SourceSansPro-Light'" font-size="14.8095">idea</tspan></text>
	</g>
	<g>
		<rect x="1112.234" y="1064.421" fill="none" width="90.484" height="45.543"/>
		<text transform="matrix(1 0 0 1 1124.6445 1075.0664)"><tspan x="0" y="0" font-family="'SourceSansPro-Light'" font-size="14.8095">supporting </tspan><tspan x="19.838" y="17.771" font-family="'SourceSansPro-Light'" font-size="14.8095">idea</tspan></text>
	</g>
	<g>
		<rect x="933.799" y="1067.382" fill="none" width="90.482" height="45.543"/>
		<text transform="matrix(1 0 0 1 946.207 1078.0293)"><tspan x="0" y="0" font-family="'SourceSansPro-Light'" font-size="14.8095">supporting </tspan><tspan x="19.838" y="17.771" font-family="'SourceSansPro-Light'" font-size="14.8095">idea</tspan></text>
	</g>
</g>
<rect x="870.214" y="760.888" fill="none" width="582" height="132"/>
<text transform="matrix(1 0 0 1 935.5586 802.9443)" fill="#F8C751" font-family="'SourceSansPro-Bold'" font-size="60">BRAINSTORMING</text>
</svg>
